<svg width="152" height="72" viewBox="0 0 152 72" fill="none" xmlns="http://www.w3.org/2000/svg">
<path d="M146.691 28.0238C145.44 26.4141 143.838 25.1113 142.006 24.215C140.174 23.3188 138.161 22.8528 136.121 22.8528C134.081 22.8528 132.068 23.3188 130.236 24.215C128.404 25.1113 126.802 26.4141 125.551 28.0238C123.875 30.4121 122.996 33.2676 123.039 36.1838C122.996 39.1001 123.875 41.9555 125.551 44.3438C126.802 45.9536 128.404 47.2564 130.236 48.1526C132.068 49.0489 134.081 49.5148 136.121 49.5148C138.161 49.5148 140.174 49.0489 142.006 48.1526C143.838 47.2564 145.44 45.9536 146.691 44.3438C148.366 41.9552 149.245 39.1 149.203 36.1838C149.245 33.2677 148.366 30.4124 146.691 28.0238ZM142.504 39.2438C141.544 42.11 139.266 44.3438 136.111 44.4152C132.955 44.4866 130.678 42.11 129.728 39.2438C129.049 37.2602 129.049 35.1074 129.728 33.1238C130.688 30.2576 132.965 28.0238 136.111 27.9524C139.256 27.881 141.544 30.2576 142.504 33.1238C143.18 35.1044 143.18 37.253 142.504 39.2336V39.2438ZM46.2509 48.8318C46.2509 49.032 46.1713 49.224 46.0296 49.3655C45.8879 49.5071 45.6956 49.5866 45.4952 49.5866H41.1038C40.9034 49.5866 40.7112 49.5071 40.5695 49.3655C40.4277 49.224 40.3481 49.032 40.3481 48.8318V12.7748C40.3481 12.5746 40.4277 12.3826 40.5695 12.2411C40.7112 12.0995 40.9034 12.02 41.1038 12.02H45.4952C45.6956 12.02 45.8879 12.0995 46.0296 12.2411C46.1713 12.3826 46.2509 12.5746 46.2509 12.7748V48.8318ZM35.9363 48.8318C35.9363 49.032 35.8567 49.224 35.715 49.3655C35.5732 49.5071 35.381 49.5866 35.1806 49.5866H30.7892C30.5888 49.5866 30.3966 49.5071 30.2548 49.3655C30.1131 49.224 30.0335 49.032 30.0335 48.8318V12.7748C30.0335 12.5764 30.1117 12.3859 30.2512 12.2447C30.3907 12.1034 30.5803 12.0227 30.779 12.02H35.1704C35.3708 12.02 35.563 12.0995 35.7047 12.2411C35.8465 12.3826 35.9261 12.5746 35.9261 12.7748V48.8318H35.9363ZM122.048 24.3518V27.4118C122.066 27.5439 122.05 27.6783 122.002 27.8027C121.954 27.9271 121.876 28.0375 121.775 28.1238C121.673 28.2101 121.551 28.2696 121.42 28.2966C121.29 28.3237 121.154 28.3176 121.027 28.2788C116.064 27.2588 113.01 29.462 113.01 34.0418V48.8318C113.01 49.032 112.93 49.224 112.789 49.3655C112.647 49.5071 112.455 49.5866 112.254 49.5866H107.863C107.663 49.5866 107.47 49.5071 107.329 49.3655C107.187 49.224 107.107 49.032 107.107 48.8318V33.7256C107.081 32.2967 107.355 30.8783 107.913 29.5622C108.471 28.246 109.299 27.0617 110.345 26.0858C112.491 23.9895 115.38 22.8239 118.382 22.8422C119.41 22.845 120.435 22.9406 121.446 23.1278C121.966 23.3012 122.048 23.6072 122.048 24.3926V24.3518ZM103.247 36.1736C103.303 33.2556 102.422 30.3963 100.735 28.0136C99.4841 26.4039 97.8816 25.1011 96.0496 24.2048C94.2176 23.3086 92.2046 22.8426 90.1647 22.8426C88.1247 22.8426 86.1118 23.3086 84.2798 24.2048C82.4478 25.1011 80.8453 26.4039 79.5947 28.0136C77.935 30.4119 77.046 33.2582 77.046 36.1736C77.046 39.089 77.935 41.9353 79.5947 44.3336C80.8251 45.9652 82.4236 47.2839 84.2602 48.1825C86.0968 49.081 88.1198 49.5342 90.1647 49.505C92.8431 49.5138 95.4634 48.7255 97.6913 47.2406V50.4638C97.6913 54.8396 93.8616 55.6352 91.4106 55.7882C89.7241 55.8439 88.036 55.7518 86.3656 55.5128C85.6916 55.4108 85.2218 55.5128 85.2218 56.237V60.113C85.2258 60.2001 85.2469 60.2856 85.2839 60.3645C85.321 60.4435 85.3732 60.5143 85.4377 60.5731C85.5022 60.6318 85.5777 60.6773 85.6598 60.7069C85.7419 60.7364 85.8291 60.7495 85.9163 60.7454C91.6046 61.235 95.4343 61.133 98.3143 59.4908C100.332 58.2992 101.829 56.396 102.512 54.1562C103.021 52.4282 103.266 50.633 103.237 48.8318V36.1736H103.247ZM90.1647 44.3948C87.009 44.3948 84.7316 42.0896 83.7717 39.2234C83.0924 37.2398 83.0924 35.087 83.7717 33.1034C84.7316 30.2372 87.009 27.932 90.1647 27.932C97.2215 27.932 97.4564 35.123 97.4564 36.1634C97.4564 37.2038 97.2215 44.3948 90.1647 44.3948ZM26.0098 33.5318C26.0098 30.0536 25.2336 27.4118 23.5588 25.586C21.8839 23.7602 18.5138 22.8524 15.3888 22.8524C12.2519 22.8402 9.16814 23.6603 6.45282 25.229C6.36782 25.2792 6.29758 25.3509 6.24917 25.4369C6.20076 25.5228 6.1759 25.62 6.17708 25.7186L6.41197 29.5538C6.43283 29.6731 6.48507 29.7848 6.56333 29.8773C6.64159 29.9698 6.74306 30.0399 6.85735 30.0804C6.97165 30.1208 7.09466 30.1302 7.21379 30.1076C7.33292 30.085 7.44389 30.0312 7.53534 29.9516C11.365 27.5954 15.9607 27.1568 18.2993 28.34C18.9427 28.7104 19.4729 29.2489 19.8327 29.8977C20.1926 30.5465 20.3686 31.281 20.3418 32.0222V32.5832H13.959C11.2118 32.5832 2.79674 33.6032 2.79674 41.3246V41.4062C2.73126 42.5812 2.94403 43.7551 3.41779 44.8326C3.89155 45.9101 4.61296 46.8609 5.52348 47.6078C7.51236 49.0072 9.91653 49.6937 12.3454 49.556H25.2642C25.4647 49.556 25.6569 49.4765 25.7986 49.3349C25.9403 49.1934 26.02 49.0014 26.02 48.8012V33.5012L26.0098 33.5318ZM20.3418 44.8436H12.7131C11.7343 44.8156 10.7885 44.4841 10.0068 43.895C9.60467 43.613 9.27801 43.2368 9.05544 42.7993C8.83287 42.3618 8.72119 41.8765 8.7302 41.3858C8.7302 40.0088 9.65954 37.2548 14.3062 37.2548H20.3418V44.8436ZM62.4173 22.8524C54.6048 22.8524 51.1836 28.085 50.0908 32.5118C49.7903 33.7058 49.6394 34.9323 49.6415 36.1634C49.5993 39.0796 50.4783 41.9348 52.1538 44.3234C53.4058 45.9315 55.0086 47.2332 56.8403 48.1293C58.6719 49.0255 60.6841 49.4925 62.7237 49.4948C66.9415 49.6478 69.7601 48.9338 71.9149 47.7098C72.1251 47.5744 72.2874 47.3766 72.379 47.1442C72.4706 46.9118 72.4869 46.6566 72.4256 46.4144V43.0178C72.4256 42.3242 72.0069 41.9978 71.4043 42.416C68.8821 44.0305 65.8888 44.7491 62.9075 44.456C61.2097 44.4337 59.5787 43.7917 58.3221 42.6512C57.0654 41.5107 56.2699 39.9505 56.0856 38.2646H73.4468C73.6347 38.2646 73.815 38.1908 73.9487 38.0591C74.0825 37.9274 74.159 37.7484 74.1617 37.5608C74.4681 32.8178 73.0894 22.8524 62.4173 22.8524ZM56.1775 33.5726C56.2126 32.7918 56.4029 32.0257 56.7372 31.319C57.0715 30.6123 57.5432 29.979 58.1248 29.456C58.7064 28.933 59.3863 28.5308 60.125 28.2726C60.8636 28.0145 61.6463 27.9057 62.4275 27.9524C63.1752 27.9067 63.924 28.0213 64.6236 28.2886C65.3232 28.5559 65.9574 28.9696 66.4837 29.502C67.0099 30.0344 67.416 30.6731 67.6746 31.3752C67.9333 32.0773 68.0385 32.8265 67.9831 33.5726H56.1775Z" fill="#FF5A00"/>
</svg>
