<svg width="152" height="72" viewBox="0 0 152 72" fill="none" xmlns="http://www.w3.org/2000/svg">
<g clip-path="url(#clip0_334_737)">
<path d="M94.277 48.9366C85.4545 55.4569 72.667 58.9356 61.6571 58.9356C46.2195 58.9356 32.3217 53.2106 21.8075 43.6887C20.9815 42.9399 21.7216 41.9195 22.7129 42.5026C34.0598 49.1222 48.0898 53.1046 62.5823 53.1046C72.3564 53.1046 83.1085 51.0769 92.9949 46.8693C94.4884 46.2331 95.7375 47.8499 94.277 48.9366Z" fill="#FF9900"/>
<path d="M97.9446 44.729C96.8212 43.2845 90.4902 44.0465 87.6485 44.3844C86.7828 44.4904 86.6506 43.7351 87.4304 43.1917C92.4727 39.6334 100.747 40.6605 101.711 41.8532C102.676 43.0526 101.46 51.3685 96.722 55.3376C95.9951 55.9472 95.3012 55.6225 95.625 54.8141C96.689 52.1504 99.0747 46.1801 97.9446 44.729Z" fill="#FF9900"/>
<path d="M87.8468 18.0716V14.6127C87.8468 14.0892 88.2434 13.738 88.7192 13.738H104.163C104.659 13.738 105.056 14.0959 105.056 14.6127V17.5746C105.049 18.0716 104.633 18.721 103.892 19.748L95.8894 31.2048C98.8633 31.1319 102.002 31.5759 104.699 33.0999C105.307 33.4445 105.472 33.9481 105.518 34.445V38.1358C105.518 38.6394 104.963 39.2292 104.381 38.9244C99.6299 36.4263 93.3187 36.1546 88.0649 38.9509C87.5296 39.2424 86.9679 38.6593 86.9679 38.1557V34.6504C86.9679 34.0872 86.9745 33.1264 87.5362 32.2716L96.808 18.9396H88.739C88.2434 18.9396 87.8468 18.5884 87.8468 18.0716Z" fill="#0B0C13"/>
<path d="M31.5088 39.6532H26.8101C26.3607 39.6201 26.0039 39.2822 25.9708 38.8515V14.6723C25.9708 14.1886 26.3739 13.8043 26.8762 13.8043H31.2577C31.7137 13.8242 32.0771 14.1754 32.1102 14.6127V17.7734H32.1961C33.3394 14.7187 35.4871 13.2941 38.3817 13.2941C41.3225 13.2941 43.1597 14.7187 44.4814 17.7734C45.6181 14.7187 48.202 13.2941 50.971 13.2941C52.9404 13.2941 55.0947 14.1091 56.4098 15.9379C57.8968 17.9722 57.5928 20.9275 57.5928 23.5184L57.5862 38.7786C57.5862 39.2623 57.1831 39.6532 56.6808 39.6532H51.9887C51.5195 39.6201 51.1428 39.2424 51.1428 38.7786V25.9634C51.1428 24.943 51.2353 22.3985 51.0107 21.4311C50.6604 19.8077 49.6096 19.3504 48.2483 19.3504C47.1116 19.3504 45.9221 20.1125 45.4396 21.3317C44.9572 22.5509 45.0035 24.5918 45.0035 25.9634V38.7786C45.0035 39.2623 44.6004 39.6532 44.0981 39.6532H39.406C38.9302 39.6201 38.5601 39.2424 38.5601 38.7786L38.5535 25.9634C38.5535 23.2666 38.9963 19.2974 35.659 19.2974C32.282 19.2974 32.4142 23.1672 32.4142 25.9634V38.7786C32.4142 39.2623 32.011 39.6532 31.5088 39.6532Z" fill="#0B0C13"/>
<path d="M118.352 13.2941C125.324 13.2941 129.097 19.2974 129.097 26.9309C129.097 34.3059 124.927 40.1568 118.352 40.1568C111.505 40.1568 107.778 34.1535 107.778 26.6724C107.778 19.145 111.552 13.2941 118.352 13.2941ZM118.392 18.2306C114.929 18.2306 114.711 22.9617 114.711 25.9104C114.711 28.8657 114.664 35.1739 118.352 35.1739C121.993 35.1739 122.165 30.085 122.165 26.9839C122.165 24.943 122.079 22.5045 121.465 20.5697C120.936 18.8866 119.885 18.2306 118.392 18.2306Z" fill="#0B0C13"/>
<path d="M138.138 39.6532H133.459C132.99 39.6201 132.613 39.2424 132.613 38.7786L132.606 14.5928C132.646 14.1489 133.036 13.8043 133.512 13.8043H137.867C138.277 13.8242 138.614 14.1025 138.706 14.4802V18.1776H138.792C140.107 14.8711 141.951 13.2941 145.196 13.2941C147.304 13.2941 149.359 14.0561 150.681 16.1433C151.91 18.0782 151.91 21.3317 151.91 23.6708V38.8912C151.857 39.3153 151.467 39.6532 151.005 39.6532H146.293C145.863 39.6201 145.506 39.302 145.46 38.8912V25.758C145.46 23.1142 145.764 19.2444 142.519 19.2444C141.376 19.2444 140.325 20.0131 139.803 21.1793C139.142 22.6569 139.056 24.128 139.056 25.758V38.7786C139.05 39.2623 138.64 39.6532 138.138 39.6532Z" fill="#0B0C13"/>
<path d="M75.535 28.1037V27.0832C72.1382 27.0832 68.5497 27.8121 68.5497 31.8276C68.5497 33.8619 69.6005 35.2401 71.4046 35.2401C72.7264 35.2401 73.9093 34.4251 74.6561 33.0999C75.5812 31.4698 75.535 29.9392 75.535 28.1037ZM80.2733 39.5869C79.9627 39.8652 79.5133 39.8851 79.1631 39.6996C77.6035 38.4009 77.3259 37.7979 76.4668 36.5588C73.8895 39.196 72.0655 39.9845 68.7216 39.9845C64.7696 39.9845 61.6901 37.5394 61.6901 32.6427C61.6901 28.8193 63.7585 26.2152 66.6993 24.943C69.2503 23.8165 72.8123 23.6177 75.535 23.3063V22.6967C75.535 21.5768 75.6209 20.2516 74.9667 19.2842C74.3917 18.4161 73.2947 18.0583 72.3298 18.0583C70.5389 18.0583 68.9396 18.9794 68.5497 20.8877C68.4704 21.3118 68.1598 21.7292 67.7369 21.7491L63.177 21.2588C62.7937 21.1726 62.3707 20.8612 62.4765 20.2715C63.5272 14.7319 68.5167 13.0621 72.9841 13.0621C75.2706 13.0621 78.2577 13.6717 80.0618 15.4078C82.3484 17.5481 82.1303 20.404 82.1303 23.5117V30.8536C82.1303 33.0601 83.0423 34.0275 83.9014 35.2203C84.2054 35.6443 84.2715 36.1546 83.8882 36.4726C82.93 37.2744 81.225 38.7653 80.2865 39.6002L80.2733 39.5869Z" fill="#0B0C13"/>
<path d="M13.9367 28.1037V27.0832C10.5399 27.0832 6.95148 27.8121 6.95148 31.8276C6.95148 33.8619 8.00224 35.2401 9.80637 35.2401C11.1281 35.2401 12.311 34.4251 13.0578 33.0999C13.983 31.4698 13.9367 29.9392 13.9367 28.1037ZM18.6751 39.5869C18.3645 39.8652 17.9151 39.8851 17.5648 39.6996C16.0052 38.4009 15.7276 37.7979 14.8685 36.5588C12.2912 39.196 10.4672 39.9845 7.1233 39.9845C3.17138 39.9845 0.0917969 37.5394 0.0917969 32.6427C0.0917969 28.8193 2.16027 26.2152 5.10108 24.943C7.65198 23.8165 11.214 23.6177 13.9367 23.3063V22.6967C13.9367 21.5768 14.0226 20.2516 13.3684 19.2842C12.7934 18.4161 11.6964 18.0583 10.7316 18.0583C8.94066 18.0583 7.34138 18.9794 6.95148 20.8877C6.87217 21.3118 6.56157 21.7292 6.13863 21.7491L1.57872 21.2588C1.19543 21.1726 0.772477 20.8612 0.878214 20.2715C1.92898 14.7319 6.91843 13.0621 11.3858 13.0621C13.6724 13.0621 16.6594 13.6717 18.4636 15.4078C20.7501 17.5481 20.5321 20.404 20.5321 23.5117V30.8536C20.5321 33.0601 21.444 34.0275 22.3032 35.2203C22.6072 35.6443 22.6732 36.1546 22.2899 36.4726C21.3317 37.2744 19.6267 38.7653 18.6883 39.6002L18.6751 39.5869Z" fill="#0B0C13"/>
</g>
<defs>
<clipPath id="clip0_334_737">
<rect width="152" height="46" fill="white" transform="translate(0 13)"/>
</clipPath>
</defs>
</svg>
