<svg width="164" height="24" viewBox="0 0 164 24" fill="none" xmlns="http://www.w3.org/2000/svg">
<g clip-path="url(#clip0_334_1419)">
<path d="M39.9788 18.8866C35.7775 20.6705 31.211 21.5333 27.052 21.5333C20.8929 21.5333 14.9348 19.8394 10.1091 17.0339C9.68581 16.7904 9.37362 17.2245 9.72285 17.5421C14.194 21.5809 20.0992 24 26.6605 24C31.338 24 36.7722 22.5284 40.5238 19.76C41.1429 19.3048 40.6138 18.6166 39.9788 18.8866Z" fill="#FF9900"/>
<path d="M37.6136 17.3251C37.2803 17.558 37.3438 17.8756 37.7036 17.8333C38.91 17.6903 41.6033 17.3621 42.0848 17.9815C42.5663 18.5955 41.5504 21.1257 41.1006 22.2585C40.9631 22.5973 41.2541 22.7349 41.5663 22.4755C43.577 20.7922 44.0955 17.2669 43.6828 16.7587C43.2754 16.2505 39.7619 15.8165 37.6136 17.3251Z" fill="#FF9900"/>
<path d="M44.9527 13.0428C43.8098 12.397 42.471 12.2118 41.2117 12.2382L44.6087 7.38423C44.9262 6.95018 45.1061 6.67492 45.1061 6.46319V5.20867C45.1061 4.99164 44.9368 4.83813 44.7252 4.83813L38.1639 4.84343C37.9628 4.83813 37.7935 4.99164 37.7935 5.21396V6.68022C37.7935 6.89724 37.9628 7.04546 38.1745 7.04546H41.6033L37.6665 12.6987C37.4284 13.064 37.4231 13.4663 37.4231 13.7045V15.1919C37.4231 15.4089 37.6612 15.6524 37.8887 15.5307C40.1217 14.3397 42.8044 14.4561 44.8257 15.5148C45.0744 15.6418 45.3125 15.3983 45.3125 15.1813V13.6198C45.2808 13.4081 45.212 13.191 44.9527 13.0428Z" fill="#0B0C13"/>
<path d="M11.8552 15.8271H13.85C14.0617 15.8271 14.2363 15.663 14.2363 15.4565V10.0203C14.2363 8.83457 14.1781 7.19363 15.6173 7.19363C17.0354 7.19363 16.8449 8.87692 16.8449 10.0203V15.4512C16.8449 15.6471 17.0037 15.8059 17.2047 15.8218H19.1996C19.4112 15.8218 19.5858 15.6577 19.5858 15.4512V10.015C19.5858 9.43272 19.57 8.5699 19.771 8.05116C19.9774 7.5377 20.4801 7.20951 20.9669 7.20951C21.5436 7.20951 21.9881 7.40537 22.1416 8.0935C22.2368 8.50109 22.1998 9.58093 22.1998 10.015V15.4512C22.1998 15.6471 22.3585 15.8059 22.5596 15.8218H24.5544C24.7661 15.8218 24.9407 15.6577 24.9407 15.4512V8.98808C24.9407 7.88706 25.073 6.63783 24.438 5.77502C23.8771 4.9969 22.967 4.65283 22.1257 4.65283C20.951 4.65283 19.8504 5.25627 19.3636 6.55314C18.8027 5.25627 18.0249 4.65283 16.7761 4.65283C15.5485 4.65283 14.6331 5.25627 14.1463 6.55314H14.1093V5.20863C14.0987 5.02337 13.94 4.87515 13.7442 4.86457H11.8816C11.67 4.86457 11.4954 5.02866 11.4954 5.2351V15.4883C11.5112 15.6736 11.6647 15.8112 11.8552 15.8271Z" fill="#0B0C13"/>
<path d="M50.7519 4.64752C47.8628 4.64752 46.2595 7.1301 46.2595 10.322C46.2595 13.4927 47.8416 16.0388 50.7519 16.0388C53.5457 16.0388 55.3183 13.5562 55.3183 10.4278C55.3183 7.19362 53.715 4.64752 50.7519 4.64752ZM50.7519 13.9215C49.1856 13.9215 49.2015 11.2483 49.2015 9.99909C49.2015 8.74986 49.2915 6.74368 50.7625 6.74368C51.3974 6.74368 51.8419 7.02423 52.0694 7.73883C52.3287 8.5593 52.3657 9.5915 52.3657 10.4596C52.3763 11.7671 52.3022 13.9215 50.7519 13.9215Z" fill="#0B0C13"/>
<path d="M64.4883 5.8597C63.9274 4.97571 63.0543 4.64752 62.1601 4.64752C60.7791 4.64752 59.9959 5.31448 59.4351 6.72251H59.398V5.15039C59.3663 4.99159 59.2181 4.86984 59.0435 4.86455H57.1915C56.9905 4.86455 56.8264 5.01276 56.8105 5.19803L56.8158 15.4512C56.8158 15.6471 56.9746 15.8059 57.1757 15.8218H59.1599C59.3769 15.8218 59.5462 15.6577 59.5515 15.4512V9.93557C59.5515 9.24743 59.5885 8.62282 59.8689 7.99291C60.0912 7.49534 60.5409 7.17244 61.0225 7.17244C62.4035 7.17244 62.2712 8.80809 62.2712 9.93027V15.4989C62.2924 15.6735 62.4405 15.8112 62.6257 15.8218H64.6312C64.8269 15.8218 64.991 15.6841 65.0121 15.4989V9.04629C65.0121 8.05643 65.0121 6.67487 64.4883 5.8597Z" fill="#0B0C13"/>
<path d="M32.555 8.89809C31.3962 9.03043 29.8828 9.11512 28.8034 9.58623C27.5493 10.1314 26.6763 11.2325 26.6763 12.8522C26.6763 14.9272 27.9832 15.9647 29.6606 15.9647C31.084 15.9647 31.8565 15.6312 32.9571 14.5143C33.3169 15.0384 33.4333 15.2924 34.1 15.843C34.2482 15.9224 34.4387 15.9171 34.571 15.7953V15.8006C34.9731 15.446 35.698 14.816 36.1055 14.4773C36.2642 14.3449 36.2377 14.1279 36.1107 13.9479C35.7456 13.4398 35.3541 13.0322 35.3541 12.0953V8.98279C35.3541 7.66475 35.4493 6.45257 34.4757 5.54741C33.7085 4.81164 32.4385 4.55756 31.4649 4.55756C29.5653 4.55756 27.4488 5.26686 26.999 7.61711C26.9567 7.86589 27.1366 7.99293 27.3006 8.02999L29.2373 8.24172C29.4172 8.23113 29.5495 8.05645 29.5865 7.87648C29.7505 7.0666 30.4278 6.67489 31.1898 6.67489C31.5972 6.67489 32.0682 6.8284 32.3063 7.19893C32.5867 7.60652 32.5497 8.17291 32.5497 8.64401V8.89809H32.555ZM32.1846 13.0481C31.8671 13.6092 31.3644 13.9585 30.8035 13.9585C30.0363 13.9585 29.5865 13.3763 29.5918 12.5082C29.5918 10.809 31.1157 10.4967 32.5602 10.4967V10.9307C32.555 11.7036 32.5761 12.3546 32.1846 13.0481Z" fill="#0B0C13"/>
<path d="M9.93977 13.9479C9.57466 13.4398 9.1884 13.0322 9.1884 12.0953V8.98277C9.1884 7.66473 9.28364 6.45255 8.31003 5.54739C7.54279 4.81162 6.27286 4.55225 5.29925 4.55225C3.39966 4.55225 1.27783 5.26155 0.838646 7.6065C0.791024 7.85529 0.97093 7.98762 1.13496 8.02468L3.0716 8.23112C3.2515 8.22053 3.38379 8.04585 3.41553 7.86588C3.58486 7.06129 4.26215 6.66958 5.01881 6.66958C5.43154 6.66958 5.89718 6.82309 6.14058 7.18833C6.42102 7.60121 6.38398 8.1623 6.38398 8.6387V8.89808C5.22517 9.03041 3.71185 9.1151 2.63241 9.58621C1.37836 10.1261 0.5 11.2324 0.5 12.8522C0.5 14.9272 1.80696 15.9647 3.48961 15.9647C4.90769 15.9647 5.68023 15.6312 6.78083 14.5143C7.14593 15.0384 7.26234 15.2924 7.92376 15.8429C8.07192 15.9223 8.26241 15.917 8.39469 15.7953L8.39998 15.8006C8.80213 15.4459 9.52175 14.816 9.92918 14.4773C10.0985 14.3449 10.0668 14.1279 9.93977 13.9479ZM6.38398 10.9307C6.38398 11.7088 6.39985 12.3546 6.01359 13.0481C5.69611 13.6091 5.18814 13.9585 4.62725 13.9585C3.86001 13.9585 3.41024 13.3709 3.41024 12.5081C3.41024 10.809 4.93944 10.4967 6.37869 10.4967L6.38398 10.9307Z" fill="#0B0C13"/>
<path d="M70.5416 16.1024C69.5203 16.1024 68.7055 15.8112 68.0917 15.229C67.4779 14.6467 67.1763 13.8633 67.1763 12.884C67.1763 11.8306 67.552 10.9943 68.298 10.3697C69.0441 9.74505 70.0548 9.42745 71.3194 9.42745C72.1237 9.42745 73.0338 9.5492 74.0391 9.79269V8.36878C74.0391 7.59066 73.8645 7.19896 73.51 6.88665C73.1555 6.56905 72.5576 6.41025 71.7057 6.41025C70.7109 6.41025 69.7426 6.55317 68.7901 6.8443C68.4621 6.94488 68.2504 6.99781 68.1657 6.99781C67.9911 6.99781 67.9065 6.86548 67.9065 6.6061V6.02384C67.9065 5.83857 67.9329 5.70094 67.9911 5.61095C68.0493 5.52626 68.1657 5.44686 68.3351 5.37275C68.7795 5.17161 69.3457 5.00751 70.0283 4.88577C70.7109 4.76402 71.3935 4.7005 72.0708 4.7005C73.4359 4.7005 74.4466 4.98634 75.0921 5.55273C75.7377 6.11912 76.0657 6.98722 76.0657 8.15705V15.3878C76.0657 15.6736 75.9229 15.8218 75.6371 15.8218H74.7059C74.4307 15.8218 74.272 15.6842 74.2296 15.4089L74.1238 14.6996C73.6053 15.1443 73.0338 15.4936 72.4041 15.7371C71.7797 15.9806 71.1607 16.1024 70.5416 16.1024ZM71.0601 14.4826C71.5363 14.4826 72.0337 14.3873 72.5523 14.202C73.0708 14.0168 73.5682 13.7415 74.0391 13.3816V11.1795C73.2613 10.9943 72.4994 10.899 71.748 10.899C70.1235 10.899 69.3087 11.5236 69.3087 12.7781C69.3087 13.3233 69.4621 13.7468 69.7637 14.0432C70.0653 14.3344 70.4992 14.4826 71.0601 14.4826Z" fill="#FF9900"/>
<path d="M81.9021 16.06C80.9497 16.06 80.1348 15.8218 79.4417 15.3507C78.7538 14.8743 78.2247 14.2126 77.8543 13.3657C77.4892 12.5187 77.304 11.5289 77.304 10.4067C77.304 9.21041 77.4997 8.32642 77.886 7.44244C78.2723 6.55845 78.8226 5.8809 79.5263 5.41509C80.2301 4.94927 81.0449 4.71107 81.9656 4.71107C83.1879 4.71107 84.2885 5.11337 85.2674 5.91795V0.434054C85.2674 0.148213 85.4103 0 85.7013 0H86.9765C87.2623 0 87.4104 0.14292 87.4104 0.434054V15.393C87.4104 15.6789 87.2676 15.8271 86.9765 15.8271H86.0294C85.8971 15.8271 85.7966 15.7953 85.7172 15.7424C85.6378 15.6842 85.5796 15.573 85.532 15.3983L85.3574 14.7049C84.8812 15.139 84.3415 15.4724 83.7382 15.7106C83.1297 15.9435 82.5212 16.06 81.9021 16.06ZM82.5477 14.3344C83.4419 14.3344 84.3467 14.0009 85.2674 13.3392V7.38421C84.823 7.05073 84.3732 6.81253 83.9181 6.65902C83.4631 6.50551 82.9657 6.43141 82.4154 6.43141C80.4576 6.43141 79.4787 7.6277 79.4787 10.3326C79.484 13.0004 80.5052 14.3344 82.5477 14.3344Z" fill="#FF9900"/>
<path d="M92.887 15.8218C92.686 15.8218 92.5378 15.7953 92.4426 15.7371C92.3473 15.6789 92.2521 15.5148 92.1515 15.2395L88.3312 5.6533C88.2994 5.56861 88.2677 5.48392 88.2307 5.39393C88.1936 5.30924 88.1777 5.22984 88.1777 5.15573C88.1777 4.97046 88.2836 4.87518 88.5005 4.87518H89.7757C89.9927 4.87518 90.1461 4.90694 90.2308 4.95988C90.3154 5.0181 90.4107 5.1822 90.5112 5.45745L93.4691 13.8792L96.4269 5.45745C96.5275 5.1822 96.6227 5.0181 96.7074 4.95988C96.7921 4.90165 96.9455 4.87518 97.1624 4.87518H98.3477C98.5647 4.87518 98.6705 4.97046 98.6705 5.15573C98.6705 5.22984 98.6546 5.30924 98.6176 5.39393C98.5805 5.47862 98.5488 5.56332 98.5223 5.6533L94.7231 15.2395C94.6226 15.5148 94.5274 15.6789 94.4321 15.7371C94.3369 15.7953 94.194 15.8218 93.9929 15.8218H92.887Z" fill="#FF9900"/>
<path d="M103.904 16.15C102.136 16.15 100.798 15.663 99.8875 14.6837C98.9826 13.7044 98.5276 12.2593 98.5276 10.3432C98.5276 8.51696 98.9826 7.09305 99.8875 6.07673C100.792 5.06041 102.062 4.55225 103.687 4.55225C105.052 4.55225 106.105 4.93866 106.84 5.70619C107.576 6.47902 107.941 7.56945 107.941 8.97748C107.941 9.438 107.904 9.90381 107.835 10.3802C107.803 10.5549 107.761 10.6661 107.697 10.7243C107.634 10.7825 107.528 10.809 107.385 10.809H100.607C100.634 12.0476 100.94 12.9634 101.522 13.5509C102.105 14.1438 103.009 14.4349 104.232 14.4349C104.66 14.4349 105.078 14.4084 105.475 14.3502C105.872 14.292 106.369 14.1702 106.973 13.985C107.073 13.9585 107.158 13.932 107.232 13.9109C107.306 13.8897 107.369 13.8791 107.428 13.8791C107.613 13.8791 107.708 14.0114 107.708 14.2655V14.869C107.708 15.0542 107.682 15.1919 107.623 15.266C107.565 15.3454 107.444 15.4301 107.258 15.5148C106.824 15.7 106.311 15.8535 105.713 15.97C105.11 16.0917 104.507 16.15 103.904 16.15ZM105.978 9.39036C105.994 9.2739 105.999 9.08864 105.999 8.82926C105.999 7.95057 105.793 7.2889 105.385 6.84426C104.978 6.39962 104.375 6.17201 103.581 6.17201C102.671 6.17201 101.967 6.44197 101.464 6.98189C100.962 7.52181 100.676 8.3264 100.602 9.39036H105.978Z" fill="#FF9900"/>
<path d="M109.787 15.8218C109.502 15.8218 109.354 15.6788 109.354 15.3877V5.3092C109.354 5.02336 109.496 4.87514 109.787 4.87514H110.735C110.877 4.87514 110.989 4.9069 111.068 4.95984C111.147 5.01806 111.2 5.12393 111.232 5.28273L111.385 6.49491C111.772 6.07673 112.142 5.74854 112.486 5.49976C112.83 5.25626 113.19 5.07629 113.555 4.95984C113.92 4.84338 114.312 4.78516 114.73 4.78516C114.904 4.78516 115.073 4.79045 115.248 4.80633C115.491 4.83809 115.618 4.96513 115.618 5.19274V6.35728C115.618 6.61665 115.486 6.74369 115.227 6.74369C115.1 6.74369 114.973 6.7384 114.851 6.72252C114.73 6.70664 114.597 6.70135 114.449 6.70135C113.296 6.70135 112.311 7.04541 111.491 7.73884V15.3824C111.491 15.6683 111.348 15.8165 111.063 15.8165H109.787V15.8218Z" fill="#FF9900"/>
<path d="M121.73 15.9647C119.688 15.9647 118.661 14.9431 118.661 12.8999V6.54787H117.106C116.814 6.54787 116.672 6.40495 116.672 6.11382V5.57389C116.672 5.43097 116.703 5.31981 116.767 5.251C116.83 5.18219 116.957 5.12925 117.143 5.10279L118.719 4.90693L119 2.2285C119.032 1.94266 119.18 1.79974 119.455 1.79974H120.36C120.645 1.79974 120.794 1.94266 120.794 2.2285V4.86459H123.598C123.889 4.86459 124.032 5.00751 124.032 5.29864V6.11911C124.032 6.40495 123.889 6.55316 123.598 6.55316H120.794V12.794C120.794 13.3233 120.91 13.6992 121.148 13.9162C121.386 14.1332 121.794 14.2391 122.365 14.2391C122.64 14.2391 122.979 14.202 123.381 14.1279C123.598 14.0856 123.741 14.0644 123.815 14.0644C123.931 14.0644 124.011 14.0962 124.053 14.1597C124.095 14.2232 124.117 14.3291 124.117 14.472V15.0543C124.117 15.2395 124.09 15.3825 124.032 15.4777C123.974 15.573 123.857 15.6471 123.688 15.7053C123.132 15.88 122.482 15.9647 121.73 15.9647Z" fill="#FF9900"/>
<path d="M126.794 2.92192C126.376 2.92192 126.048 2.80547 125.815 2.56727C125.577 2.32907 125.46 2.01676 125.46 1.62505C125.46 1.23864 125.577 0.92104 125.815 0.68284C126.053 0.444639 126.381 0.328186 126.794 0.328186C127.212 0.328186 127.54 0.444639 127.778 0.68284C128.016 0.92104 128.133 1.23335 128.133 1.62505C128.133 2.01147 128.016 2.32907 127.778 2.56727C127.54 2.80018 127.212 2.92192 126.794 2.92192ZM126.148 15.8112C125.857 15.8112 125.714 15.6683 125.714 15.3771V5.29863C125.714 5.01279 125.857 4.86458 126.148 4.86458H127.424C127.709 4.86458 127.857 5.0075 127.857 5.29863V15.3824C127.857 15.6683 127.715 15.8165 127.424 15.8165L126.148 15.8112Z" fill="#FF9900"/>
<path d="M133.165 16.1341C131.958 16.1341 130.868 15.9329 129.905 15.5306C129.731 15.4618 129.614 15.3771 129.551 15.2924C129.487 15.2078 129.456 15.0701 129.456 14.8849V14.2814C129.456 14.022 129.54 13.895 129.715 13.895C129.815 13.895 129.995 13.9374 130.255 14.022C131.202 14.3238 132.191 14.4773 133.212 14.4773C133.916 14.4773 134.451 14.3396 134.821 14.0697C135.186 13.7944 135.371 13.3974 135.371 12.884C135.371 12.5399 135.26 12.2594 135.038 12.0423C134.816 11.8253 134.408 11.6136 133.816 11.3966L131.98 10.7084C130.382 10.1156 129.583 9.10983 129.583 7.68592C129.583 6.749 129.948 5.99205 130.673 5.42037C131.397 4.8434 132.355 4.55756 133.535 4.55756C134.472 4.55756 135.382 4.72165 136.276 5.05513C136.451 5.11336 136.572 5.18746 136.641 5.28274C136.71 5.37802 136.747 5.51565 136.747 5.70621V6.28848C136.747 6.54785 136.652 6.67489 136.467 6.67489C136.366 6.67489 136.202 6.63784 135.969 6.56373C135.207 6.33612 134.429 6.21966 133.636 6.21966C132.255 6.21966 131.562 6.68548 131.562 7.6224C131.562 7.99823 131.678 8.28936 131.905 8.50639C132.133 8.72341 132.588 8.96161 133.265 9.21569L134.948 9.86148C135.8 10.195 136.408 10.5867 136.784 11.0366C137.16 11.4918 137.345 12.0794 137.345 12.794C137.345 13.8156 136.964 14.6308 136.202 15.2342C135.445 15.8324 134.435 16.1341 133.165 16.1341Z" fill="#FF9900"/>
<path d="M139.816 2.92192C139.398 2.92192 139.07 2.80547 138.837 2.56727C138.599 2.32907 138.482 2.01676 138.482 1.62505C138.482 1.23864 138.599 0.92104 138.837 0.68284C139.075 0.444639 139.403 0.328186 139.816 0.328186C140.234 0.328186 140.562 0.444639 140.8 0.68284C141.038 0.92104 141.155 1.23335 141.155 1.62505C141.155 2.01147 141.038 2.32907 140.8 2.56727C140.562 2.80018 140.234 2.92192 139.816 2.92192ZM139.17 15.8112C138.879 15.8112 138.736 15.6683 138.736 15.3771V5.29863C138.736 5.01279 138.879 4.86458 139.17 4.86458H140.446C140.731 4.86458 140.879 5.0075 140.879 5.29863V15.3824C140.879 15.6683 140.737 15.8165 140.446 15.8165L139.17 15.8112Z" fill="#FF9900"/>
<path d="M143.081 15.8112C142.795 15.8112 142.647 15.6683 142.647 15.3771V5.29862C142.647 5.01278 142.79 4.86456 143.081 4.86456H144.033C144.176 4.86456 144.287 4.89103 144.366 4.94926C144.446 5.00748 144.499 5.11335 144.53 5.27215L144.663 6.07145C146.028 5.04983 147.467 4.53638 148.98 4.53638C150.033 4.53638 150.827 4.81163 151.377 5.36743C151.922 5.92323 152.198 6.72782 152.198 7.7759V15.3771C152.198 15.663 152.055 15.8112 151.764 15.8112H150.488C150.203 15.8112 150.055 15.6683 150.055 15.3771V8.4905C150.055 7.72826 149.901 7.16717 149.589 6.80722C149.282 6.44727 148.795 6.2673 148.134 6.2673C146.996 6.2673 145.88 6.63254 144.79 7.36831V15.3824C144.79 15.6683 144.647 15.8165 144.356 15.8165H143.081V15.8112Z" fill="#FF9900"/>
<path d="M158.23 20.5223C157.05 20.5223 155.949 20.3053 154.928 19.8765C154.753 19.8024 154.642 19.723 154.584 19.6383C154.526 19.5536 154.499 19.416 154.499 19.2254V18.6008C154.499 18.3414 154.584 18.2144 154.759 18.2144C154.843 18.2144 154.949 18.2356 155.071 18.2779C155.193 18.3203 155.362 18.3732 155.579 18.4314C156.473 18.6749 157.298 18.7967 158.06 18.7967C159.214 18.7967 160.055 18.5214 160.59 17.9656C161.124 17.4098 161.389 16.5205 161.389 15.2978V14.3291C160.897 14.7473 160.373 15.0649 159.812 15.2925C159.251 15.5148 158.685 15.626 158.108 15.626C157.187 15.626 156.388 15.3983 155.711 14.9325C155.034 14.472 154.515 13.8315 154.155 13.011C153.796 12.1906 153.616 11.4019 153.616 10.3379C153.616 8.60699 154.028 7.23601 154.849 6.22498C155.669 5.20866 156.769 4.7005 158.15 4.7005C159.447 4.7005 160.574 5.14514 161.542 6.03972L161.648 5.43627C161.68 5.27747 161.733 5.17161 161.812 5.11338C161.891 5.05515 162.003 5.02869 162.145 5.02869H163.071C163.357 5.02869 163.505 5.17161 163.505 5.46274V15.1548C163.505 16.8699 163.045 18.1932 162.135 19.1301C161.214 20.0512 159.912 20.5223 158.23 20.5223ZM158.727 13.8897C159.616 13.8897 160.505 13.5563 161.383 12.8946V7.37364C160.95 7.04016 160.51 6.80196 160.066 6.64845C159.621 6.49494 159.129 6.42084 158.6 6.42084C156.727 6.42084 155.796 7.69124 155.796 10.2426C155.796 11.4971 156.044 12.2859 156.542 12.9263C157.029 13.5721 157.764 13.8897 158.727 13.8897Z" fill="#FF9900"/>
</g>
<defs>
<clipPath id="clip0_334_1419">
<rect width="163" height="24" fill="white" transform="translate(0.5)"/>
</clipPath>
</defs>
</svg>
