<svg width="164" height="24" viewBox="0 0 164 24" fill="none" xmlns="http://www.w3.org/2000/svg">
<g clip-path="url(#clip0_334_1416)">
<path d="M90.76 6.73297C90.76 6.53189 90.6901 6.36324 90.5503 6.22054C90.4104 6.07784 90.1688 5.94811 89.8383 5.82486L88.8529 5.44865C88.0774 5.15027 87.6896 4.67027 87.6896 3.99568C87.6896 3.53513 87.8549 3.16541 88.1918 2.88C88.5287 2.59459 88.9674 2.45189 89.5077 2.45189C89.762 2.45189 90.0226 2.48432 90.3023 2.5427C90.5757 2.60108 90.83 2.68541 91.0652 2.78919V3.30811C90.4803 3.11351 89.9527 3.0227 89.4823 3.0227C89.0945 3.0227 88.7957 3.10054 88.5923 3.2627C88.3889 3.42486 88.2871 3.65838 88.2871 3.96324C88.2871 4.21622 88.3571 4.41081 88.4969 4.54703C88.6368 4.68324 88.9165 4.83243 89.3297 4.99459L90.2006 5.32541C90.6075 5.48108 90.8999 5.66919 91.0843 5.89622C91.2686 6.12324 91.364 6.40216 91.364 6.73297C91.364 7.23243 91.186 7.63459 90.8236 7.92649C90.4676 8.21838 89.9781 8.36108 89.3615 8.36108C88.7004 8.36108 88.1155 8.23135 87.5942 7.9654V7.44649C88.2363 7.68 88.8402 7.80324 89.406 7.80324C89.8446 7.80324 90.1815 7.71243 90.4168 7.53081C90.6393 7.34919 90.76 7.08324 90.76 6.73297ZM92.896 5.51351C92.9024 6.29189 93.0677 6.8627 93.3982 7.23243C93.7224 7.60216 94.2247 7.78378 94.9049 7.78378C95.5279 7.78378 96.1254 7.65405 96.6976 7.39459V7.91351C96.1826 8.21189 95.5724 8.35459 94.8604 8.35459C93.9958 8.35459 93.3537 8.10811 92.9151 7.60865C92.4828 7.10919 92.2667 6.36973 92.2667 5.39027C92.2667 4.4627 92.4828 3.73622 92.9215 3.22378C93.3601 2.71135 93.9704 2.45189 94.7587 2.45189C95.4198 2.45189 95.922 2.64649 96.2716 3.02919C96.6213 3.41189 96.7993 3.96324 96.7993 4.67676C96.7993 5.00757 96.7802 5.28649 96.7357 5.50703H92.896V5.51351ZM94.7078 3.0227C93.5635 3.0227 92.9596 3.68432 92.896 5.00757H96.1954C96.2017 4.90378 96.2081 4.78054 96.2081 4.64432C96.2081 4.11243 96.0809 3.71027 95.8266 3.43784C95.5724 3.15892 95.2036 3.0227 94.7078 3.0227ZM99.6472 8.15351C99.4565 8.20541 99.2722 8.23135 99.0942 8.23135C98.8018 8.23135 98.5793 8.14703 98.414 7.97189C98.2487 7.79676 98.1724 7.55676 98.1724 7.24541V0H98.789V7.23243C98.789 7.39459 98.8208 7.51135 98.8844 7.57622C98.948 7.64108 99.056 7.67351 99.215 7.67351C99.3294 7.67351 99.4756 7.66054 99.6472 7.64108V8.15351ZM102.362 8.15351C102.171 8.20541 101.987 8.23135 101.809 8.23135C101.516 8.23135 101.294 8.14703 101.128 7.97189C100.963 7.79676 100.887 7.55676 100.887 7.24541V0H101.504V7.23243C101.504 7.39459 101.535 7.51135 101.599 7.57622C101.662 7.64108 101.771 7.67351 101.929 7.67351C102.044 7.67351 102.19 7.66054 102.362 7.64108V8.15351ZM103.951 5.51351C103.957 6.29189 104.123 6.8627 104.453 7.23243C104.777 7.60216 105.28 7.78378 105.96 7.78378C106.583 7.78378 107.18 7.65405 107.753 7.39459V7.91351C107.238 8.21189 106.627 8.35459 105.915 8.35459C105.051 8.35459 104.409 8.10811 103.97 7.60865C103.538 7.10919 103.322 6.36973 103.322 5.39027C103.322 4.4627 103.538 3.73622 103.976 3.22378C104.415 2.71135 105.025 2.45189 105.814 2.45189C106.475 2.45189 106.977 2.64649 107.327 3.02919C107.676 3.41189 107.854 3.96324 107.854 4.67676C107.854 5.00757 107.835 5.28649 107.791 5.50703H103.951V5.51351ZM105.763 3.0227C104.618 3.0227 104.015 3.68432 103.951 5.00757H107.25C107.257 4.90378 107.263 4.78054 107.263 4.64432C107.263 4.11243 107.136 3.71027 106.882 3.43784C106.627 3.15892 106.252 3.0227 105.763 3.0227ZM109.227 8.19892V2.62703H109.768L109.831 3.43784C110.105 3.12649 110.378 2.90595 110.639 2.77622C110.906 2.64649 111.204 2.58162 111.535 2.58162C111.656 2.58162 111.808 2.59459 111.98 2.61405V3.17838C111.789 3.16541 111.624 3.15892 111.471 3.15892C111.141 3.15892 110.842 3.22378 110.588 3.34703C110.334 3.47027 110.086 3.67784 109.844 3.95676V8.19892H109.227ZM119.443 8.01081C118.992 8.21838 118.54 8.32216 118.089 8.32216C117.25 8.32216 116.614 8.07568 116.176 7.5827C115.743 7.08973 115.527 6.36973 115.527 5.41622C115.527 4.46919 115.75 3.74919 116.188 3.24973C116.627 2.75027 117.269 2.50378 118.108 2.50378C118.56 2.50378 118.979 2.59459 119.38 2.76973V3.28865C118.979 3.15892 118.566 3.08757 118.14 3.08757C117.453 3.08757 116.958 3.26919 116.646 3.62595C116.341 3.9827 116.182 4.56 116.182 5.35135V5.48108C116.182 6.24649 116.335 6.8173 116.646 7.18054C116.958 7.54378 117.447 7.73189 118.115 7.73189C118.515 7.73189 118.954 7.64757 119.437 7.4854V8.01081H119.443ZM120.829 5.51351C120.835 6.29189 121.001 6.8627 121.331 7.23243C121.655 7.60216 122.158 7.78378 122.838 7.78378C123.461 7.78378 124.058 7.65405 124.631 7.39459V7.91351C124.116 8.21189 123.505 8.35459 122.793 8.35459C121.929 8.35459 121.287 8.10811 120.848 7.60865C120.409 7.10919 120.2 6.36973 120.2 5.39027C120.2 4.4627 120.416 3.73622 120.854 3.22378C121.293 2.71135 121.903 2.45189 122.692 2.45189C123.353 2.45189 123.855 2.64649 124.205 3.02919C124.554 3.41189 124.732 3.96324 124.732 4.67676C124.732 5.00757 124.713 5.28649 124.669 5.50703H120.829V5.51351ZM122.641 3.0227C121.497 3.0227 120.893 3.68432 120.829 5.00757H124.128C124.135 4.90378 124.141 4.78054 124.141 4.64432C124.141 4.11243 124.014 3.71027 123.76 3.43784C123.505 3.15892 123.137 3.0227 122.641 3.0227ZM129.983 8.19892V4.41081C129.983 3.93081 129.894 3.58054 129.71 3.36649C129.532 3.14595 129.239 3.04216 128.839 3.04216C128.114 3.04216 127.409 3.27568 126.722 3.74919V8.20541H126.105V2.62703H126.646L126.709 3.26919C127.065 3.00973 127.434 2.80865 127.828 2.67243C128.216 2.52973 128.597 2.46486 128.966 2.46486C129.494 2.46486 129.901 2.60757 130.174 2.89297C130.454 3.17838 130.594 3.59351 130.594 4.15135V8.20541H129.983V8.19892ZM135.05 8.07568C134.745 8.19892 134.382 8.26378 133.956 8.26378C133.53 8.26378 133.206 8.14703 132.977 7.91351C132.755 7.68 132.641 7.3427 132.641 6.90162V3.17838H131.617V2.7373L132.66 2.64L132.749 1.01189H133.257V2.62703H134.993V3.17838H133.257V6.86919C133.257 7.17405 133.321 7.38811 133.448 7.51135C133.575 7.63459 133.785 7.69946 134.084 7.69946C134.382 7.69946 134.7 7.65405 135.05 7.56973V8.07568ZM136.2 8.19892V2.62703H136.741L136.804 3.43784C137.078 3.12649 137.351 2.90595 137.612 2.77622C137.879 2.64649 138.178 2.58162 138.508 2.58162C138.629 2.58162 138.781 2.59459 138.953 2.61405V3.17838C138.762 3.16541 138.597 3.15892 138.445 3.15892C138.114 3.15892 137.815 3.22378 137.561 3.34703C137.307 3.47027 137.059 3.67784 136.817 3.95676V8.19892H136.2ZM143.225 8.19892L143.168 7.55676C142.545 8.06919 141.896 8.32216 141.216 8.32216C140.714 8.32216 140.32 8.17946 140.027 7.88757C139.735 7.59568 139.589 7.20649 139.589 6.72C139.589 6.18162 139.767 5.75351 140.129 5.44865C140.491 5.1373 140.981 4.98162 141.604 4.98162C142.087 4.98162 142.608 5.06595 143.155 5.23459V4.30054C143.155 3.85297 143.047 3.52865 142.837 3.33405C142.627 3.13946 142.278 3.04216 141.795 3.04216C141.216 3.04216 140.6 3.15892 139.938 3.39892V2.88C140.212 2.75676 140.523 2.65297 140.873 2.58162C141.223 2.51027 141.559 2.47135 141.896 2.47135C142.532 2.47135 143.003 2.60757 143.314 2.88C143.619 3.15243 143.778 3.56757 143.778 4.11892V8.20541H143.225V8.19892ZM141.305 7.74486C141.579 7.74486 141.877 7.68649 142.195 7.57622C142.513 7.45946 142.837 7.30378 143.161 7.09622V5.70811C142.678 5.57838 142.208 5.50703 141.75 5.50703C140.739 5.50703 140.231 5.9027 140.231 6.70054C140.231 7.03784 140.32 7.2973 140.504 7.47892C140.682 7.65405 140.949 7.74486 141.305 7.74486ZM146.931 8.15351C146.741 8.20541 146.556 8.23135 146.378 8.23135C146.086 8.23135 145.863 8.14703 145.698 7.97189C145.533 7.79676 145.456 7.55676 145.456 7.24541V0H146.073V7.23243C146.073 7.39459 146.105 7.51135 146.168 7.57622C146.232 7.64108 146.34 7.67351 146.499 7.67351C146.613 7.67351 146.76 7.66054 146.931 7.64108V8.15351ZM87.9756 21.4703V13.6216H88.516L88.5732 14.2443C88.9038 13.9719 89.228 13.7708 89.5458 13.6476C89.8637 13.5243 90.1815 13.4595 90.5185 13.4595C91.2178 13.4595 91.7772 13.7189 92.1777 14.2314C92.5845 14.7438 92.788 15.4508 92.788 16.3395C92.788 17.2476 92.5718 17.9741 92.1459 18.5124C91.72 19.0508 91.1415 19.3232 90.4168 19.3232C89.7493 19.3232 89.1453 19.0703 88.5923 18.5708V21.4832H87.9756V21.4703ZM90.3977 14.0303C89.7938 14.0303 89.1962 14.2638 88.5986 14.7373V17.9805C88.8974 18.24 89.1835 18.4281 89.4696 18.5514C89.7493 18.6746 90.048 18.733 90.3596 18.733C90.9508 18.733 91.4021 18.5384 91.7009 18.1427C91.9997 17.747 92.1523 17.1568 92.1523 16.3784C92.1459 14.8086 91.5674 14.0303 90.3977 14.0303ZM97.4858 19.1935L97.4286 18.5514C96.8056 19.0638 96.1572 19.3168 95.477 19.3168C94.9748 19.3168 94.5807 19.1741 94.2882 18.8822C93.9958 18.5903 93.8496 18.2011 93.8496 17.7146C93.8496 17.1762 94.0276 16.7481 94.3899 16.4432C94.7523 16.1319 95.2418 15.9762 95.8648 15.9762C96.3479 15.9762 96.8692 16.0605 97.4159 16.2292V15.3016C97.4159 14.8541 97.3078 14.5297 97.0981 14.3351C96.8883 14.1405 96.5386 14.0432 96.0555 14.0432C95.477 14.0432 94.8604 14.16 94.1992 14.4V13.8811C94.4726 13.7578 94.7841 13.6541 95.1337 13.5827C95.4834 13.5114 95.8203 13.4724 96.1572 13.4724C96.7929 13.4724 97.2633 13.6086 97.5748 13.8811C97.88 14.1535 98.0389 14.5686 98.0389 15.12V19.2065H97.4858V19.1935ZM95.566 18.7395C95.8394 18.7395 96.1381 18.6811 96.456 18.5708C96.7738 18.4541 97.0981 18.2984 97.4223 18.0908V16.7092C96.9391 16.5795 96.4687 16.5081 96.011 16.5081C95.0002 16.5081 94.4917 16.9038 94.4917 17.7016C94.4917 18.0389 94.5807 18.2984 94.765 18.48C94.943 18.6486 95.21 18.7395 95.566 18.7395ZM99.7172 19.1935V13.6216H100.258L100.321 14.4324C100.594 14.1211 100.868 13.9005 101.128 13.7708C101.395 13.6411 101.694 13.5762 102.025 13.5762C102.146 13.5762 102.298 13.5892 102.47 13.6086V14.173C102.279 14.16 102.114 14.1535 101.961 14.1535C101.631 14.1535 101.332 14.2184 101.078 14.3416C100.823 14.4649 100.575 14.6724 100.334 14.9514V19.1935H99.7172ZM106.443 19.0703C106.138 19.1935 105.775 19.2584 105.35 19.2584C104.924 19.2584 104.599 19.1416 104.371 18.9081C104.148 18.6746 104.034 18.3373 104.034 17.8962V14.173H103.01V13.7319L104.053 13.6346L104.142 12.0065H104.65V13.6216H106.386V14.173H104.65V17.8638C104.65 18.1686 104.714 18.3827 104.841 18.5059C104.968 18.6292 105.178 18.6941 105.477 18.6941C105.775 18.6941 106.093 18.6486 106.443 18.5643V19.0703ZM111.471 19.1935V15.4054C111.471 14.9254 111.382 14.5751 111.198 14.3611C111.02 14.1405 110.728 14.0368 110.327 14.0368C109.602 14.0368 108.897 14.2703 108.21 14.7438V19.2H107.594V13.6216H108.134L108.198 14.2638C108.554 14.0043 108.922 13.8032 109.316 13.667C109.704 13.5243 110.086 13.4595 110.454 13.4595C110.982 13.4595 111.389 13.6022 111.662 13.8876C111.942 14.173 112.082 14.5881 112.082 15.1459V19.2H111.471V19.1935ZM114.11 16.5081C114.116 17.2865 114.281 17.8573 114.612 18.227C114.936 18.5968 115.438 18.7784 116.118 18.7784C116.741 18.7784 117.339 18.6486 117.911 18.3892V18.9081C117.396 19.2065 116.786 19.3492 116.074 19.3492C115.209 19.3492 114.567 19.1027 114.129 18.6032C113.696 18.1038 113.48 17.3643 113.48 16.3849C113.48 15.4573 113.696 14.7308 114.135 14.2184C114.574 13.7059 115.184 13.4465 115.972 13.4465C116.633 13.4465 117.136 13.6411 117.485 14.0238C117.835 14.4065 118.013 14.9578 118.013 15.6714C118.013 16.0022 117.994 16.2811 117.949 16.5016H114.11V16.5081ZM115.921 14.0173C114.777 14.0173 114.173 14.6789 114.11 16.0022H117.409C117.415 15.8984 117.422 15.7751 117.422 15.6389C117.422 15.107 117.295 14.7049 117.04 14.4324C116.786 14.1535 116.417 14.0173 115.921 14.0173ZM119.386 19.1935V13.6216H119.926L119.99 14.4324C120.263 14.1211 120.537 13.9005 120.797 13.7708C121.064 13.6411 121.363 13.5762 121.694 13.5762C121.814 13.5762 121.967 13.5892 122.139 13.6086V14.173C121.948 14.16 121.783 14.1535 121.63 14.1535C121.299 14.1535 121.001 14.2184 120.746 14.3416C120.492 14.4649 120.244 14.6724 120.003 14.9514V19.1935H119.386ZM129.843 19.1935V15.4054C129.843 14.9254 129.754 14.5751 129.57 14.3611C129.392 14.1405 129.1 14.0368 128.699 14.0368C127.974 14.0368 127.269 14.2703 126.582 14.7438V19.2H125.966V13.6216H126.506L126.569 14.2638C126.925 14.0043 127.294 13.8032 127.688 13.667C128.076 13.5243 128.458 13.4595 128.826 13.4595C129.354 13.4595 129.761 13.6022 130.034 13.8876C130.314 14.173 130.454 14.5881 130.454 15.1459V19.2H129.843V19.1935ZM132.482 16.5081C132.488 17.2865 132.653 17.8573 132.984 18.227C133.308 18.5968 133.81 18.7784 134.49 18.7784C135.113 18.7784 135.711 18.6486 136.283 18.3892V18.9081C135.768 19.2065 135.158 19.3492 134.446 19.3492C133.581 19.3492 132.939 19.1027 132.501 18.6032C132.062 18.1038 131.852 17.3643 131.852 16.3849C131.852 15.4573 132.068 14.7308 132.507 14.2184C132.946 13.7059 133.556 13.4465 134.344 13.4465C135.005 13.4465 135.508 13.6411 135.857 14.0238C136.207 14.4065 136.385 14.9578 136.385 15.6714C136.385 16.0022 136.366 16.2811 136.321 16.5016H132.482V16.5081ZM134.293 14.0173C133.149 14.0173 132.545 14.6789 132.482 16.0022H135.781C135.787 15.8984 135.794 15.7751 135.794 15.6389C135.794 15.107 135.666 14.7049 135.412 14.4324C135.158 14.1535 134.783 14.0173 134.293 14.0173ZM140.536 19.0703C140.231 19.1935 139.868 19.2584 139.443 19.2584C139.017 19.2584 138.692 19.1416 138.464 18.9081C138.241 18.6746 138.127 18.3373 138.127 17.8962V14.173H137.103V13.7319L138.146 13.6346L138.235 12.0065H138.743V13.6216H140.479V14.173H138.743V17.8638C138.743 18.1686 138.807 18.3827 138.934 18.5059C139.061 18.6292 139.271 18.6941 139.57 18.6941C139.868 18.6941 140.186 18.6486 140.536 18.5643V19.0703ZM146.2 19.1935L144.846 14.3286L143.498 19.1935H142.825L140.968 13.6216H141.629L143.149 18.4605L144.503 13.6216H145.228L146.575 18.493L148.126 13.6216H148.768L146.868 19.1935H146.2ZM151.991 19.3557C151.197 19.3557 150.574 19.0962 150.135 18.5773C149.697 18.0584 149.474 17.3319 149.474 16.3978C149.474 15.4703 149.697 14.7438 150.135 14.2249C150.574 13.7059 151.197 13.4465 151.991 13.4465C152.786 13.4465 153.409 13.7059 153.848 14.2249C154.286 14.7438 154.509 15.4638 154.509 16.3978C154.509 17.3254 154.286 18.0519 153.848 18.5773C153.403 19.0962 152.786 19.3557 151.991 19.3557ZM151.991 18.7784C153.244 18.7784 153.867 17.987 153.867 16.3978C153.867 14.8151 153.244 14.0303 151.991 14.0303C150.739 14.0303 150.116 14.8216 150.116 16.3978C150.11 17.987 150.739 18.7784 151.991 18.7784ZM155.92 19.1935V13.6216H156.46L156.524 14.4324C156.797 14.1211 157.071 13.9005 157.331 13.7708C157.598 13.6411 157.897 13.5762 158.228 13.5762C158.349 13.5762 158.501 13.5892 158.673 13.6086V14.173C158.482 14.16 158.317 14.1535 158.164 14.1535C157.834 14.1535 157.535 14.2184 157.281 14.3416C157.026 14.4649 156.778 14.6724 156.537 14.9514V19.1935H155.92ZM159.652 19.1935V10.9946H160.268V16.0995L162.97 13.6151H163.816L160.917 16.2486L164 19.187H163.11L160.268 16.4627V19.187H159.652V19.1935ZM48.1167 18.8043C48.8605 18.24 48.2248 17.3968 47.462 17.7276C42.4144 19.9135 36.9219 20.9708 31.9253 20.9708C24.5256 20.9708 17.3548 18.9016 11.5635 15.4573C11.055 15.1524 10.6799 15.6843 11.0995 16.0735C16.4648 21.0227 23.5657 24 31.4548 24C37.0745 24 43.6096 22.1903 48.1167 18.8043ZM49.9857 16.6184C50.5642 17.3708 49.3437 20.4778 48.8033 21.8595C48.638 22.2811 48.994 22.4497 49.3627 22.1319C51.7848 20.0692 52.4014 15.7492 51.9119 15.12C51.4161 14.4973 47.195 13.9654 44.6203 15.8141C44.2198 16.0995 44.2898 16.4886 44.7348 16.4368C46.1778 16.2616 49.4136 15.8659 49.9857 16.6184ZM44.8301 2.75676C44.8301 3.0227 45.0336 3.21081 45.2878 3.21081H49.4072L44.6712 10.1384C44.3851 10.5795 44.3788 11.0789 44.3788 11.3773V13.2C44.3788 13.4595 44.6648 13.7643 44.9382 13.6151C47.6209 12.1622 50.8439 12.3049 53.2723 13.6022C53.5711 13.7578 53.8508 13.453 53.8508 13.1935V11.2735C53.8254 11.0141 53.7428 10.7546 53.4313 10.573C52.0518 9.78162 50.4498 9.54811 48.9304 9.58703L53.0181 3.63243C53.3931 3.10054 53.6093 2.76324 53.6093 2.50378V0.96C53.6093 0.694054 53.4058 0.505946 53.1515 0.505946H45.2751C45.0336 0.505946 44.8301 0.687568 44.8301 0.96V2.75676ZM16.0516 13.9784C16.3059 13.9784 16.5157 13.7773 16.5157 13.5243V6.8627C16.5157 5.40973 16.4458 3.39892 18.1749 3.39892C19.8786 3.39892 19.6561 5.46162 19.6561 6.8627L19.6624 13.5243C19.6624 13.7643 19.8532 13.9589 20.0947 13.9784H22.4913C22.7456 13.9784 22.9554 13.7773 22.9554 13.5243V6.8627C22.9554 6.14919 22.93 5.09189 23.1779 4.45622C23.4258 3.82054 24.0298 3.42486 24.6146 3.42486C25.3075 3.42486 25.8479 3.66486 26.0259 4.50811C26.1403 5.01405 26.0958 6.33081 26.0958 6.8627V13.5243C26.0958 13.7643 26.2865 13.9589 26.5281 13.9784H28.9247C29.179 13.9784 29.3888 13.7773 29.3888 13.5243L29.3951 5.59135C29.3951 4.24216 29.5477 2.71135 28.7912 1.65405C28.1174 0.70054 27.0176 0.278919 26.0132 0.278919C24.6019 0.278919 23.2796 1.01838 22.7011 2.60757C22.0273 1.01838 21.0864 0.278919 19.5862 0.278919C18.105 0.278919 17.0115 1.01838 16.4267 2.60757H16.3822V0.96C16.3631 0.732973 16.1788 0.551351 15.9499 0.538378H13.7122C13.4579 0.538378 13.2481 0.739459 13.2481 0.992432V13.5632C13.2672 13.7903 13.4452 13.9654 13.6741 13.9784H16.0516ZM60.4113 0.278919C63.9713 0.278919 65.8975 3.39892 65.8975 7.36865C65.8975 11.2022 63.7679 14.2443 60.4113 14.2443C56.9149 14.2443 55.0078 11.1243 55.0078 7.23243C55.0078 3.31459 56.9404 0.278919 60.4113 0.278919ZM60.4304 2.84108C58.6631 2.84108 58.5487 5.29946 58.5487 6.83027C58.5487 8.36757 58.5233 11.6432 60.4113 11.6432C62.274 11.6432 62.3566 8.99676 62.3566 7.38811C62.3566 6.32432 62.3121 5.05946 62.0006 4.05405C61.7336 3.18486 61.1933 2.84108 60.4304 2.84108ZM70.5191 13.9784C70.7734 13.9784 70.9832 13.7773 70.9895 13.5243V6.75243C70.9895 5.9027 71.034 5.1373 71.3709 4.37189C71.6379 3.76865 72.1719 3.36649 72.7568 3.36649C74.416 3.36649 74.2571 5.3773 74.2571 6.75243V13.5762C74.2825 13.7903 74.4605 13.9524 74.683 13.9719H77.0923C77.3275 13.9719 77.5246 13.7968 77.5564 13.5762V5.66919C77.5564 4.45622 77.5564 2.76324 76.927 1.75784C76.2532 0.674595 75.2043 0.278919 74.1236 0.278919C72.4644 0.278919 71.5235 1.09622 70.8497 2.81514H70.8052V0.895135C70.7607 0.70054 70.5827 0.551351 70.3792 0.544865H68.1543C67.9127 0.544865 67.7093 0.726487 67.6902 0.953514L67.6965 13.5243C67.6965 13.7643 67.8873 13.9589 68.1288 13.9784H70.5191ZM38.543 7.97189V7.44C36.8075 7.44 34.9767 7.81622 34.9767 9.90486C34.9767 10.9622 35.5107 11.6757 36.4324 11.6757C37.1063 11.6757 37.7102 11.2541 38.0916 10.56C38.562 9.72324 38.543 8.9254 38.543 7.97189ZM40.9587 13.9459C40.7997 14.0886 40.5709 14.1016 40.3929 14.0043C39.5983 13.3297 39.452 13.0184 39.0134 12.3697C37.6975 13.7384 36.763 14.1535 35.0593 14.1535C33.0377 14.1535 31.4675 12.8822 31.4675 10.3395C31.4675 8.35459 32.5228 6.99892 34.0231 6.3373C35.3263 5.75351 37.1444 5.64973 38.5366 5.48757V5.16324C38.5366 4.57946 38.5811 3.89189 38.2442 3.39243C37.9518 2.93838 37.3923 2.75676 36.8965 2.75676C35.9811 2.75676 35.1674 3.23676 34.9639 4.22919C34.9258 4.44973 34.7669 4.66378 34.5507 4.67676L32.2304 4.4173C32.0333 4.37189 31.8172 4.20973 31.8744 3.90486C32.4084 1.02486 34.9576 0.155676 37.2398 0.155676C38.4095 0.155676 39.9352 0.473513 40.8569 1.37513C42.0267 2.49081 41.9122 3.96973 41.9122 5.58486V9.39892C41.9122 10.547 42.3763 11.0465 42.8149 11.6692C42.9675 11.8897 43.0056 12.1557 42.8086 12.3178C42.3191 12.733 41.4482 13.5114 40.9714 13.9459H40.9587ZM7.07542 7.97189V7.44C5.33994 7.44 3.5091 7.81622 3.5091 9.90486C3.5091 10.9622 4.04309 11.6757 4.96487 11.6757C5.63872 11.6757 6.24264 11.2541 6.62407 10.56C7.10085 9.72324 7.07542 8.9254 7.07542 7.97189ZM9.49747 13.9459C9.33854 14.0886 9.10969 14.1016 8.93169 14.0043C8.13705 13.3297 7.99084 13.0184 7.5522 12.3697C6.23629 13.7384 5.3018 14.1535 3.5981 14.1535C1.57655 14.1535 0.00634766 12.8822 0.00634766 10.3395C0.00634766 8.35459 1.06162 6.99892 2.56189 6.3373C3.8651 5.75351 5.68322 5.64973 7.07542 5.48757V5.16324C7.07542 4.57946 7.11992 3.89189 6.783 3.39243C6.49057 2.93838 5.93115 2.75676 5.4353 2.75676C4.51988 2.75676 3.70617 3.23676 3.50274 4.22919C3.47096 4.44324 3.31203 4.6573 3.09589 4.67027L0.76284 4.4173C0.572128 4.37189 0.355987 4.20973 0.406844 3.90486C0.940839 1.02486 3.49003 0.155676 5.77222 0.155676C6.94192 0.155676 8.46762 0.473513 9.3894 1.37513C10.5591 2.49081 10.4447 3.96973 10.4447 5.58486V9.39892C10.4447 10.547 10.9087 11.0465 11.3474 11.6692C11.5 11.8897 11.5381 12.1557 11.341 12.3178C10.8515 12.733 9.98061 13.5114 9.50383 13.9459H9.49747Z" fill="#0B0C13"/>
</g>
<defs>
<clipPath id="clip0_334_1416">
<rect width="164" height="24" fill="white"/>
</clipPath>
</defs>
</svg>
