<svg width="152" height="72" viewBox="0 0 152 72" fill="none" xmlns="http://www.w3.org/2000/svg">
<g clip-path="url(#clip0_334_755)">
<path d="M19.6566 19.3101C8.93342 19.3101 0 23.8653 0 37.607C0 48.4948 6.00801 55.3504 19.9304 55.3504C36.3218 55.3504 37.3713 44.5388 37.3713 44.5388H29.4316C29.4316 44.5388 27.7281 50.3636 19.4487 50.3636C12.7055 50.3636 7.8535 45.7982 7.8535 39.4047H38.2028V35.3929C38.2028 29.0654 34.1924 19.3101 19.6566 19.3101ZM19.3777 24.4391C25.7964 24.4391 30.1719 28.3798 30.1719 34.2808H8.02588C8.02588 28.0142 13.7398 24.4391 19.3777 24.4391Z" fill="#E53238"/>
<path d="M38.1978 6V48.4542C38.1978 50.8664 38.0254 54.2485 38.0254 54.2485H45.6C45.6 54.2485 45.8738 51.816 45.8738 49.5968C45.8738 49.5968 49.6155 55.4622 59.7911 55.4622C70.5041 55.4622 77.7847 48.0124 77.7847 37.3328C77.7847 27.3998 71.0973 19.4117 59.8063 19.4117C49.2353 19.4117 45.9499 25.1298 45.9499 25.1298V6H38.1978ZM57.8543 24.6626C65.1299 24.6626 69.7588 30.0709 69.7588 37.3328C69.7588 45.1178 64.415 50.2113 57.905 50.2113C50.1377 50.2113 45.9499 44.1377 45.9499 37.4039C45.9499 31.1323 49.7068 24.6677 57.8543 24.6677V24.6626Z" fill="#0064D2"/>
<path d="M96.6046 19.3101C80.4768 19.3101 79.4425 28.1564 79.4425 29.5681H87.4684C87.4684 29.5681 87.8892 24.4035 96.052 24.4035C101.355 24.4035 105.462 26.836 105.462 31.508V33.1737H96.052C83.5594 33.1737 76.9531 36.8351 76.9531 44.2646C76.9531 51.6941 83.0575 55.5536 91.3064 55.5536C102.547 55.5536 106.167 49.3327 106.167 49.3327C106.167 51.8058 106.354 54.2434 106.354 54.2434H113.493C113.493 54.2434 113.214 51.2218 113.214 49.287V32.5745C113.214 21.6156 104.387 19.3101 96.6046 19.3101ZM105.462 38.1656V40.3848C105.462 43.2794 103.677 50.4702 93.1874 50.4702C87.4431 50.4702 84.979 47.5959 84.979 44.2646C84.979 38.2012 93.2736 38.1656 105.462 38.1656Z" fill="#F5AF02"/>
<path d="M108.895 20.6964H117.924L130.888 46.7072L143.822 20.6964H152.005L128.45 66.9999H119.866L126.665 54.091L108.9 20.6964H108.895Z" fill="#86B817"/>
</g>
<defs>
<clipPath id="clip0_334_755">
<rect width="152" height="61" fill="white" transform="translate(0 6)"/>
</clipPath>
</defs>
</svg>
