<svg width="48" height="48" viewBox="0 0 48 48" fill="none" xmlns="http://www.w3.org/2000/svg">
<path d="M14 44V42C14 41.4696 14.2107 40.9609 14.5858 40.5858C14.9609 40.2107 15.4696 40 16 40H32C32.5304 40 33.0391 40.2107 33.4142 40.5858C33.7893 40.9609 34 41.4696 34 42V44M34 4V6C34 6.53043 33.7893 7.03914 33.4142 7.41421C33.0391 7.78929 32.5304 8 32 8H16C15.4696 8 14.9609 7.78929 14.5858 7.41421C14.2107 7.03914 14 6.53043 14 6V4M38 16V32C38 32.5304 37.7893 33.0391 37.4142 33.4142C37.0391 33.7893 36.5304 34 36 34H12C11.4696 34 10.9609 33.7893 10.5858 33.4142C10.2107 33.0391 10 32.5304 10 32V16C10 15.4696 10.2107 14.9609 10.5858 14.5858C10.9609 14.2107 11.4696 14 12 14H36C36.5304 14 37.0391 14.2107 37.4142 14.5858C37.7893 14.9609 38 15.4696 38 16Z" stroke="url(#paint0_linear_334_728)" stroke-width="2" stroke-linecap="round" stroke-linejoin="round"/>
<defs>
<linearGradient id="paint0_linear_334_728" x1="10" y1="36.8125" x2="37.1017" y2="36.8186" gradientUnits="userSpaceOnUse">
<stop stop-color="#FF9900"/>
<stop offset="1" stop-color="#F24822"/>
</linearGradient>
</defs>
</svg>
