<svg width="50" height="50" viewBox="0 0 50 50" fill="none" xmlns="http://www.w3.org/2000/svg">
<g id="icons - 48">
<path id="Vector" d="M40.1407 5.23164L35.9091 1H29.3636V10.8182L35.9091 17.4945V25M1 26.0909V14.0909L14.0909 1H22.8182M16.1418 13.1309L7.54545 21.7273V32.6364H1M27.1818 49H35.9091L49 35.9091V23.9091M9.85818 44.7673L14.0909 49H20.6364V39.1818L14.0909 32.6364V25M33.8582 36.8691L42.4545 28.2727V17.3636H49M21.7273 10.8182C21.7273 12.6257 20.262 14.0909 18.4545 14.0909C16.6471 14.0909 15.1818 12.6257 15.1818 10.8182C15.1818 9.0107 16.6471 7.54545 18.4545 7.54545C20.262 7.54545 21.7273 9.0107 21.7273 10.8182ZM34.8182 39.1818C34.8182 40.9893 33.3529 42.4545 31.5455 42.4545C29.738 42.4545 28.2727 40.9893 28.2727 39.1818C28.2727 37.3743 29.738 35.9091 31.5455 35.9091C33.3529 35.9091 34.8182 37.3743 34.8182 39.1818ZM28.2727 25C28.2727 26.8075 26.8075 28.2727 25 28.2727C23.1925 28.2727 21.7273 26.8075 21.7273 25C21.7273 23.1925 23.1925 21.7273 25 21.7273C26.8075 21.7273 28.2727 23.1925 28.2727 25ZM45.7273 7.54545C45.7273 9.35293 44.262 10.8182 42.4545 10.8182C40.6471 10.8182 39.1818 9.35293 39.1818 7.54545C39.1818 5.73798 40.6471 4.27273 42.4545 4.27273C44.262 4.27273 45.7273 5.73798 45.7273 7.54545ZM10.8182 42.4545C10.8182 44.262 9.35293 45.7273 7.54545 45.7273C5.73798 45.7273 4.27273 44.262 4.27273 42.4545C4.27273 40.6471 5.73798 39.1818 7.54545 39.1818C9.35293 39.1818 10.8182 40.6471 10.8182 42.4545Z" stroke="url(#paint0_linear_869_5133)" stroke-width="2" stroke-miterlimit="10" stroke-linecap="square"/>
</g>
<defs>
<linearGradient id="paint0_linear_869_5133" x1="1" y1="40.375" x2="47.4601" y2="40.3901" gradientUnits="userSpaceOnUse">
<stop stop-color="#FF9900"/>
<stop offset="1" stop-color="#F24822"/>
</linearGradient>
</defs>
</svg>
