<svg width="48" height="48" viewBox="0 0 48 48" fill="none" xmlns="http://www.w3.org/2000/svg">
<g id="icons - 48">
<path id="Vector" d="M44 12V4H36M4 12V4H12M44 36V44H36M4 36V44H12M4 24C4 24 12 12 24 12C36 12 44 24 44 24C44 24 36 36 24 36C12 36 4 24 4 24ZM30 24C30 27.3137 27.3137 30 24 30C20.6863 30 18 27.3137 18 24C18 20.6863 20.6863 18 24 18C27.3137 18 30 20.6863 30 24Z" stroke="url(#paint0_linear_869_5789)" stroke-width="2" stroke-miterlimit="10" stroke-linecap="square"/>
</g>
<defs>
<linearGradient id="paint0_linear_869_5789" x1="4" y1="36.8125" x2="42.7168" y2="36.8251" gradientUnits="userSpaceOnUse">
<stop stop-color="#FF9900"/>
<stop offset="1" stop-color="#F24822"/>
</linearGradient>
</defs>
</svg>
