<svg width="48" height="48" viewBox="0 0 48 48" fill="none" xmlns="http://www.w3.org/2000/svg">
<path d="M6 42V38C6 35.8783 6.84285 33.8434 8.34315 32.3431C9.84344 30.8429 11.8783 30 14 30H22C23.896 30 25.636 30.66 27.008 31.76M32 6.25999C33.7208 6.7006 35.2461 7.7014 36.3353 9.10462C37.4245 10.5078 38.0157 12.2337 38.0157 14.01C38.0157 15.7863 37.4245 17.5122 36.3353 18.9154C35.2461 20.3186 33.7208 21.3194 32 21.76M32 38H44M10 14C10 16.1217 10.8429 18.1566 12.3431 19.6569C13.8434 21.1571 15.8783 22 18 22C20.1217 22 22.1566 21.1571 23.6569 19.6569C25.1571 18.1566 26 16.1217 26 14C26 11.8783 25.1571 9.84344 23.6569 8.34315C22.1566 6.84285 20.1217 6 18 6C15.8783 6 13.8434 6.84285 12.3431 8.34315C10.8429 9.84344 10 11.8783 10 14Z" stroke="url(#paint0_linear_710_4979)" stroke-width="2" stroke-linecap="round" stroke-linejoin="round"/>
<defs>
<linearGradient id="paint0_linear_710_4979" x1="6" y1="35.5312" x2="42.7809" y2="35.5438" gradientUnits="userSpaceOnUse">
<stop stop-color="#FF9900"/>
<stop offset="1" stop-color="#F24822"/>
</linearGradient>
</defs>
</svg>
