<svg width="152" height="72" viewBox="0 0 152 72" fill="none" xmlns="http://www.w3.org/2000/svg">
<g clip-path="url(#clip0_334_13)">
<path d="M30.4596 19.3664L30.1035 19H0.356201V19.7937H30.1035L29.7463 19.3664H30.4596V19H30.1035" fill="#C40809"/>
<path d="M30.1035 54L30.4597 53.6336V19.3663H29.7463V53.6336L30.1035 53.2063V54H30.4597V53.6336" fill="#C40809"/>
<path d="M0 53.6336L0.356151 54H30.1034V53.2063H0.356151L0.771491 53.6336H0V54H0.356151" fill="#C40809"/>
<path d="M0.356151 19L0 19.3664V53.6336H0.771491V19.3664L0.356151 19.7937V19H0V19.3664" fill="#C40809"/>
<path d="M2.31543 51.6179H13.4776V37.2024H2.31543" fill="#C40809"/>
<path d="M2.31543 35.7367H13.4776V21.3212H2.31543" fill="#C40809"/>
<path fill-rule="evenodd" clip-rule="evenodd" d="M14.9624 21.3212H28.2625L14.9624 35.7367V21.3212Z" fill="#C40809"/>
<path fill-rule="evenodd" clip-rule="evenodd" d="M14.9624 37.2024L28.2625 51.6179H14.9624V37.2024Z" fill="#C40809"/>
<path fill-rule="evenodd" clip-rule="evenodd" d="M37.9999 34.9421H37.9407V25.9627H32.478V47.6474H37.9407V38.2407H37.9999L45.125 47.6474H52.1908L43.0462 36.2859L51.4775 25.9627H44.6494L37.9999 34.9421ZM58.9587 37.3861H59.4935L59.6118 37.447L59.7904 37.5079H59.969L60.0874 37.5688L60.265 37.6297L60.3844 37.6916L60.5619 37.7525L60.6813 37.8743L60.7997 37.9352L60.9191 38.058L61.0375 38.1189L61.1558 38.2407L61.215 38.3635L61.3344 38.4244L61.4528 38.5462L61.5712 38.7908L61.6906 38.9735L61.8682 39.3399V39.5236L61.9284 39.6454L61.9876 39.8291V39.9509L62.0467 40.1346V41.112L61.9876 41.2338V41.4176L61.9284 41.5393L61.8682 41.7231V41.8448L61.809 41.9666L61.7498 42.1504L61.6906 42.2721L61.5712 42.395L61.4528 42.6385L61.3344 42.7614L61.215 42.8223L61.1558 42.944L61.0375 43.0669L60.9191 43.1278L60.7997 43.2496L60.6813 43.3104L60.5619 43.3724L60.3844 43.4333L60.265 43.4942L60.0874 43.5551L59.969 43.6159L59.7904 43.6768H59.6118L59.4935 43.7388H58.425L58.2464 43.6768H58.0689L57.8903 43.6159L57.7719 43.5551L57.5933 43.4942L57.4749 43.4333L57.2964 43.3724L57.0596 43.2496L56.9402 43.1278L56.8218 43.0669L56.7034 42.944L56.6432 42.8223L56.5249 42.7614L56.4065 42.6385L56.2871 42.395L56.1687 42.2721L56.1095 42.1504L56.0503 41.9666L55.9309 41.7231V41.5393L55.8717 41.4176V41.2338L55.8126 41.112V40.1346L55.8717 39.9509V39.8291L55.9309 39.6454V39.5236L55.9901 39.3399L56.1687 38.9735L56.2871 38.7908L56.4065 38.5462L56.5249 38.4244L56.6432 38.3635L56.7034 38.2407L56.8218 38.1189L56.9402 38.058L57.0596 37.9352L57.178 37.8743L57.2964 37.7525L57.4749 37.6916L57.5933 37.6297L57.7719 37.5688L57.8903 37.5079H58.0689L58.425 37.3861H58.9587ZM66.7369 33.4765H61.8682V34.8812L61.809 34.7594L61.512 34.4539L60.7997 33.9038L60.5027 33.7211L60.265 33.5982L59.969 33.4765L59.6721 33.3547L59.4343 33.2927L59.1373 33.2319L58.5434 33.1101L58.2464 33.0492H56.881L56.5249 33.1101L56.1687 33.171L55.8126 33.2927L55.5156 33.3547L55.1594 33.4765L54.8625 33.6602L54.5655 33.782L53.6746 34.331L53.4369 34.5757L53.1409 34.7594L52.6654 35.2476L52.4878 35.5531L52.25 35.7977L51.5377 37.0197L51.4183 37.3242L51.3 37.6916L51.1816 37.9971L50.9438 38.7299L50.8846 39.0344L50.8244 39.4018V39.8291L50.7652 40.1955V40.9283L50.8244 41.2947V41.6611L50.9438 42.395L51.1816 43.1278L51.3 43.4333L51.4183 43.7997L51.5377 44.1052L52.25 45.3262L52.4878 45.5708L52.7246 45.8763L53.2001 46.3655L53.4369 46.5482L53.7338 46.7928L53.9716 46.9755L54.5655 47.3419L54.9217 47.5256L55.2186 47.6474L55.5748 47.7702L55.8717 47.8311L56.2279 47.9529L56.5841 48.0138L56.9402 48.0757H58.3056L58.6026 48.0138L58.8995 47.9529L59.1965 47.892L59.4935 47.8311L59.7904 47.7093L60.0282 47.5865H60.2058L60.3252 47.4647L60.5619 47.3419L60.6813 47.281L60.8589 47.1592L61.0375 46.9755L61.1558 46.9146L61.512 46.5482L61.5712 46.4264L61.6906 46.3655L61.7498 46.1818L61.809 46.06H61.8682V47.6474H66.7369V33.4765ZM69.0534 33.4765V42.4559L69.1126 42.8223V43.2496L69.1718 43.6159L69.2902 43.9823L69.3494 44.2879L69.4688 44.6543L69.6463 44.9598L69.7657 45.2044L69.9433 45.5099L70.478 46.2427L71.6659 47.1592L72.8527 47.6474L73.1497 47.7093L73.5058 47.8311L73.8028 47.892L74.1589 47.9529L74.5151 48.0138H74.8712L75.2284 48.0757H77.4847L77.8409 48.0138H78.197L78.5532 47.9529L78.9093 47.892L79.2655 47.8311L79.5624 47.7093L79.8594 47.6474L80.2155 47.5256L80.5125 47.4038L80.7503 47.281L81.0473 47.1592L81.284 46.9755L81.581 46.7928L81.8187 46.6091L81.9963 46.4264L82.2341 46.2427L82.4719 45.9981L82.828 45.5099L82.9464 45.2044L83.125 44.9598L83.2434 44.6543L83.3627 44.2879L83.4219 43.9823L83.5403 43.6159L83.5995 43.2496L83.6597 42.8223V33.4765H78.7909V41.7231L78.7307 42.0286L78.6715 42.2721V42.5776L78.4338 43.0669L78.3746 43.1278L78.2562 43.3724L78.197 43.4333L78.1378 43.5551L77.9001 43.6768L77.8409 43.7997L77.7215 43.8606L77.6031 43.9215H77.4847L77.3653 43.9823L77.1878 44.0432H77.0684L76.8908 44.1052H75.8213L75.7029 44.0432H75.5254L75.406 43.9823L75.2876 43.9215H75.109L75.0498 43.8606L74.9315 43.7997L74.8121 43.6768L74.6937 43.6159L74.4559 43.3724L74.3375 43.1278L74.2783 43.0669L74.0997 42.7005V42.5776L74.0406 42.4559V42.2721L73.9814 42.0286L73.9222 41.7231V33.4765H69.0534ZM91.2593 37.6297H94.6432V33.4765H91.2593V30.666L91.3185 30.4224V30.1778L91.3777 29.9332L91.4971 29.7505V29.6886L91.5563 29.5668L91.6154 29.5059V29.3841L91.794 29.2004L91.8532 29.1395L91.9124 29.0786H92.0308L92.1502 28.9558H92.2686L92.3278 28.8949H92.4472L92.5063 28.834H93.3972L93.634 28.8949L93.8126 28.9558L94.0503 29.0167L94.2279 29.1395L94.4657 29.2004L94.6432 29.3222V24.9853L94.1687 24.7417L93.9309 24.6797L93.634 24.558H93.3972L93.1594 24.4971H91.9124L91.5563 24.558L91.2001 24.6189L90.9032 24.6797L90.547 24.8026L89.9531 25.0472L89.6561 25.2299L89.3591 25.3527L89.0622 25.5963L88.7652 25.78L88.5285 25.9627L88.2315 26.2073L87.8754 26.5737L87.756 26.7574L87.5182 27.001L87.459 27.1847L87.3406 27.3065L87.2222 27.4902L87.1028 27.7348L86.9845 27.9175L86.8651 28.1621L86.8059 28.3458L86.7467 28.4676L86.6875 28.7731L86.5691 29.0786L86.5089 29.3841V29.6886L86.3905 30.2996V33.4765H84.669V37.6297H86.3905V47.6474H91.2593V37.6297ZM95.4158 47.6474H100.285V24.7417H95.4158V47.6474ZM109.784 37.3861H110.319L110.497 37.447L110.675 37.5079H110.794L110.972 37.5688L111.09 37.6297L111.269 37.6916L111.387 37.7525L111.506 37.8743L111.684 37.9352L111.744 38.058L111.862 38.1189L112.1 38.3635L112.219 38.4244L112.278 38.5462L112.397 38.669L112.456 38.7908L112.515 38.9735L112.694 39.3399L112.753 39.5236L112.812 39.6454L112.872 39.8291V40.1346L112.931 40.2564V40.9283L112.872 41.112V41.4176L112.812 41.5393L112.753 41.7231L112.634 41.9666L112.575 42.1504L112.397 42.5168L112.278 42.6385L112.219 42.7614L112.1 42.8223L111.862 43.0669L111.744 43.1278L111.684 43.2496L111.506 43.3104L111.269 43.4333L111.09 43.4942L110.972 43.5551L110.794 43.6159L110.675 43.6768H110.497L110.319 43.7388H109.25L109.072 43.6768H108.953L108.775 43.6159L108.596 43.5551L108.478 43.4942L108.36 43.4333L108.181 43.3724L108.063 43.3104L107.943 43.2496L107.825 43.1278L107.707 43.0669L107.469 42.8223L107.41 42.7614L107.29 42.6385L107.231 42.5168L107.113 42.395L106.993 42.1504L106.934 41.9666L106.816 41.7231L106.756 41.5393V41.4176L106.696 41.2338V40.9283L106.637 40.7457V40.4401L106.696 40.2564V39.9509L106.756 39.8291V39.6454L106.816 39.5236L106.875 39.3399L107.053 38.9735L107.113 38.7908L107.231 38.669L107.29 38.5462L107.41 38.4244L107.469 38.3635L107.707 38.1189L107.825 38.058L107.943 37.9352L108.063 37.8743L108.181 37.7525L108.36 37.6916L108.596 37.5688L108.775 37.5079H108.953L109.072 37.447L109.25 37.3861H109.784ZM117.622 33.4765H112.753V34.8812L112.634 34.7594L112.575 34.6366L112.456 34.5148L112.338 34.4539L112.1 34.2702L111.922 34.0875L111.625 33.9038L111.387 33.7211L111.15 33.5982L110.556 33.3547L110.259 33.2927L110.022 33.2319L109.725 33.171L109.428 33.1101L109.072 33.0492H107.766L107.41 33.1101L107.053 33.171L106.696 33.2927L106.34 33.3547L106.044 33.4765L105.747 33.6602L105.39 33.782L104.797 34.1484L104.559 34.331L104.262 34.5757L104.025 34.7594L103.55 35.2476L103.312 35.5531L103.135 35.7977L102.897 36.1032L102.541 36.7142L102.421 37.0197L102.244 37.3242L102.124 37.6916L102.006 37.9971L101.947 38.3635L101.829 38.7299L101.768 39.0344L101.709 39.4018L101.65 39.8291V41.2947L101.829 42.395L101.947 42.7614L102.006 43.1278L102.124 43.4333L102.244 43.7997L103.135 45.3262L103.372 45.5708L103.55 45.8763L104.025 46.3655L104.322 46.5482L104.559 46.7928L105.747 47.5256L106.103 47.6474L106.4 47.7702L106.756 47.8311L107.113 47.9529L107.469 48.0138L107.825 48.0757H109.19L109.487 48.0138L109.784 47.9529L110.378 47.8311L110.616 47.7093L110.913 47.5865H111.031L111.209 47.4647L111.566 47.281L111.684 47.1592L111.803 47.0983L111.922 46.9755L112.041 46.9146L112.159 46.7928L112.219 46.67L112.515 46.3655L112.634 46.1818L112.694 46.06H112.753V47.6474H117.622V33.4765ZM124.866 33.4765H119.996V47.6474H124.866V39.9509L124.925 39.6454V39.3399L124.984 39.0344L125.044 38.9126V38.7908L125.103 38.6071L125.459 37.8743L125.578 37.8134L125.638 37.6916L125.815 37.5079L125.935 37.447L126.053 37.3861L126.171 37.2633L126.291 37.2024H126.468L126.588 37.1415L126.765 37.0806H126.885L127.062 37.0197H127.835L128.191 37.1415L128.368 37.2024L128.547 37.2633L128.665 37.3242L128.785 37.3861L129.022 37.6297L129.081 37.7525L129.2 37.8743L129.438 38.3635V38.5462L129.497 38.669V38.8517L129.556 38.9735L129.615 39.279V47.6474H134.484V38.2407L134.425 37.9352V37.6297L134.366 37.3861L134.246 36.7751L134.187 36.5305L134.128 36.225L134.01 35.9804L133.949 35.7368L133.831 35.4922L133.713 35.3085L133.593 35.0649L133.416 34.8812L133.296 34.6366L132.94 34.2702L132.763 34.1484L132.584 33.9646L132.347 33.8429L132.169 33.7211L131.694 33.4765L131.397 33.3547L131.159 33.2927L130.922 33.2319L130.625 33.171L130.328 33.1101L129.972 33.0492H128.606L128.309 33.1101L128.012 33.171L127.656 33.2319L127.359 33.2927L127.121 33.4156L126.944 33.4765L126.824 33.5374L126.706 33.5982L126.588 33.6602L126.409 33.7211L126.291 33.8429L126.171 33.9038L125.935 34.1484L125.815 34.2093L125.459 34.5757L125.341 34.7594L125.222 34.8812L125.162 35.003L125.044 35.1867L124.925 35.3085H124.866V33.4765ZM147.131 47.6474H152V24.7417H147.131V34.8812L147.072 34.7594L146.834 34.5148L146.716 34.4539L146.537 34.2702L146.3 34.0875L146.004 33.9038L145.766 33.7211L145.528 33.5982L145.231 33.4765L144.934 33.3547L144.637 33.2927L144.34 33.2319L143.747 33.1101L143.509 33.0492H142.144L141.788 33.1101L141.432 33.171L141.075 33.2927L140.718 33.3547L140.421 33.4765L140.065 33.6602L139.768 33.782L139.175 34.1484L138.938 34.331L138.641 34.5757L138.403 34.7594L137.928 35.2476L137.691 35.5531L137.512 35.7977L137.275 36.1032L136.919 36.7142L136.8 37.0197L136.622 37.3242L136.503 37.6916L136.384 37.9971L136.325 38.3635L136.206 38.7299L136.147 39.0344L136.087 39.4018L136.028 39.8291V41.2947L136.206 42.395L136.325 42.7614L136.384 43.1278L136.503 43.4333L136.622 43.7997L136.978 44.4107L137.097 44.7151L137.334 45.0207L137.512 45.3262L137.75 45.5708L137.928 45.8763L138.403 46.3655L138.7 46.5482L138.938 46.7928L140.124 47.5256L140.482 47.6474L140.778 47.7702L141.135 47.8311L141.491 47.9529L141.847 48.0138L142.203 48.0757H143.569L143.866 48.0138L144.163 47.9529L144.46 47.892L144.756 47.8311L144.993 47.7093L145.29 47.5865H145.41L145.587 47.4647L145.943 47.281L146.063 47.1592L146.181 47.0983L146.3 46.9755L146.419 46.9146L146.537 46.7928L146.596 46.67L146.716 46.5482L146.893 46.3655L147.013 46.1818L147.072 46.06H147.131V47.6474ZM144.163 37.3861H144.697L145.053 37.5079H145.172L145.35 37.5688L145.469 37.6297L145.646 37.6916L145.766 37.7525L145.884 37.8743L146.004 37.9352L146.122 38.058L146.24 38.1189L146.478 38.3635L146.596 38.4244L146.657 38.5462L146.775 38.669L146.834 38.7908L146.893 38.9735L147.072 39.3399L147.131 39.5236L147.19 39.6454V39.8291L147.25 39.9509V40.1346L147.31 40.2564V40.9283L147.25 41.112V41.2338L147.19 41.4176V41.5393L147.131 41.7231L147.013 41.9666L146.953 42.1504L146.775 42.5168L146.657 42.6385L146.596 42.7614L146.478 42.8223L146.24 43.0669L146.122 43.1278L146.004 43.2496L145.646 43.4333L145.469 43.4942L145.35 43.5551L145.172 43.6159L145.053 43.6768H144.875L144.697 43.7388H143.628L143.45 43.6768H143.331L143.153 43.6159L142.975 43.5551L142.856 43.4942L142.678 43.4333L142.322 43.2496L142.203 43.1278L142.084 43.0669L141.668 42.6385L141.609 42.5168L141.491 42.395L141.372 42.1504L141.312 41.9666L141.194 41.7231L141.135 41.5393V41.4176L141.075 41.2338V40.9283L141.015 40.7457V40.4401L141.075 40.2564V39.9509L141.135 39.8291V39.6454L141.194 39.5236L141.253 39.3399L141.432 38.9735L141.491 38.7908L141.609 38.669L141.668 38.5462L142.084 38.1189L142.203 38.058L142.322 37.9352L142.441 37.8743L142.559 37.7525L142.678 37.6916L142.856 37.6297L142.975 37.5688L143.153 37.5079H143.331L143.45 37.447L143.628 37.3861H144.163Z" fill="#C40809"/>
<path d="M32.478 54H151.882V50.8242H32.478" fill="#C40809"/>
</g>
<defs>
<clipPath id="clip0_334_13">
<rect width="152" height="35" fill="white" transform="translate(0 19)"/>
</clipPath>
</defs>
</svg>
