<svg width="152" height="72" viewBox="0 0 152 72" fill="none" xmlns="http://www.w3.org/2000/svg">
<g clip-path="url(#clip0_334_326)">
<path d="M50.0104 25.8265C50.0104 11.5608 61.6466 0 76.0034 0C90.36 0 102 11.5601 102 25.8265C102 40.0834 90.3605 51.6495 76.0034 51.6495C61.6469 51.6495 50.0104 40.0837 50.0104 25.8265ZM75.9982 43.0378C85.5673 43.0378 93.3246 35.3296 93.3246 25.8256C93.3246 16.3174 85.5675 8.60945 75.9982 8.60945C66.4299 8.60945 58.6727 16.3168 58.6727 25.8256C58.6727 35.3296 66.4308 43.0378 75.9982 43.0378ZM84.6614 25.8247C84.6614 30.5776 80.7833 34.4313 75.9982 34.4313C71.2132 34.4313 67.3359 30.5776 67.3359 25.8247C67.3359 21.0719 71.2141 17.2182 75.9991 17.2182C80.7841 17.2182 84.6614 21.0719 84.6614 25.8247Z" fill="#CC0000"/>
<path d="M54.4959 54.9971V58.0331H56.5469V59.8939H54.4959V64.9092C54.4959 65.8492 54.7326 66.0844 55.6788 66.0844C55.9945 66.0844 56.3101 66.0652 56.5469 66.006V68.1804C56.0734 68.2588 55.4429 68.278 54.8904 68.278C52.7411 68.278 51.6959 67.6316 51.6959 65.8291V59.8939H50V58.0332H51.6959V54.9971L54.4959 54.9971ZM66.6419 65.5164C66.6419 66.182 66.7602 66.3196 67.3521 66.3196H67.431V68.122C67.1749 68.2396 66.8593 68.3572 66.2674 68.3572C64.9661 68.3572 64.2961 67.9652 64.0787 67.0444C63.4087 67.8476 62.2249 68.4348 60.5299 68.4348C58.4393 68.4348 57.0591 67.3572 57.0591 65.3988C57.0591 64.4195 57.3747 63.7339 57.9465 63.2444C58.5971 62.6956 59.5434 62.402 61.2393 62.226C63.0536 62.03 63.8419 61.8732 63.8419 60.9724C63.8419 59.8163 62.9939 59.6203 62.0477 59.6203C60.8841 59.6203 60.273 60.0908 60.1747 61.1484H57.3747C57.493 58.9347 59.3266 57.7595 62.1862 57.7595C65.1641 57.7595 66.6426 58.7587 66.6426 60.6386V65.5164L66.6419 65.5164ZM61.575 66.574C63.0736 66.574 63.8427 65.7708 63.8427 64.282V63.2044C63.5866 63.4396 63.0938 63.5764 62.1468 63.694C60.707 63.87 59.859 64.1836 59.859 65.2804C59.859 66.0844 60.3517 66.574 61.575 66.574ZM74.6882 57.8571V60.4427C74.3572 60.3754 74.0201 60.3427 73.6824 60.3451C71.6514 60.3451 70.9219 61.7355 70.9219 63.597V68.161H68.1218V58.0329H70.7841V59.9137H70.8235C71.3558 58.6401 72.6773 57.7593 74.0768 57.7593C74.353 57.7585 74.5495 57.8177 74.688 57.8569L74.6882 57.8571ZM82.1023 59.3851H82.1418V58.0331H84.804V67.534C84.804 70.1589 83.2659 72.0005 79.5392 72.0005C77.1734 72.0005 75.1424 70.8053 75.024 68.7486H77.8046C78.0414 69.7278 78.8104 70.1398 79.8943 70.1398C81.3342 70.1398 82.1426 69.239 82.1426 67.6909V66.3005H82.1032C81.5516 67.2797 80.4274 67.8677 79.0471 67.8677C76.1086 67.8677 74.689 65.7325 74.689 62.7749C74.689 60.1894 76.207 57.7596 79.0666 57.7596C80.5249 57.7588 81.471 58.3076 82.1025 59.3852L82.1023 59.3851ZM79.7557 65.7708C81.2737 65.7708 82.1418 64.5364 82.1418 62.95C82.1418 61.5396 81.7078 59.8547 79.7365 59.8547C78.2975 59.8547 77.4889 61.0691 77.4889 62.7339C77.488 64.3803 78.1387 65.7708 79.7557 65.7708ZM95.7478 63.2636C95.7478 63.4204 95.7285 63.7732 95.7285 63.7732H88.374C88.4529 65.5163 89.2614 66.3396 90.8582 66.3396C91.9228 66.3396 92.8697 65.7324 93.0864 65.0268H95.5514C94.8016 67.3188 93.2242 68.4357 90.7793 68.4357C87.5453 68.4357 85.5739 66.222 85.5739 63.1076C85.5739 60.0516 87.7032 57.7596 90.7793 57.7596C93.9933 57.7588 95.7478 60.2668 95.7478 63.2636ZM92.9285 62.0099C92.6523 60.4819 91.9823 59.8556 90.6802 59.8556C89.3193 59.8556 88.4916 60.6788 88.3732 62.0099H92.9285ZM99.9489 54.9971V58.0332H102V59.894H99.9489V64.9093C99.9489 65.8493 100.186 66.0845 101.132 66.0845C101.448 66.0845 101.763 66.0653 102 66.0061V68.1804C101.526 68.2588 100.896 68.278 100.343 68.278C98.1941 68.278 97.1489 67.6316 97.1489 65.8292V59.894H95.453V58.0332H97.1489V54.9972L99.9489 54.9971Z" fill="#CC0000"/>
</g>
<defs>
<clipPath id="clip0_334_326">
<rect width="52" height="72" fill="white" transform="translate(50)"/>
</clipPath>
</defs>
</svg>
