<svg width="152" height="72" viewBox="0 0 152 72" fill="none" xmlns="http://www.w3.org/2000/svg">
<g clip-path="url(#clip0_334_92)">
<path d="M88.1601 37.1575C88.1601 33.6023 86.6194 30.4612 81.4087 30.4612C78.7354 30.4612 76.6117 31.2138 75.4603 31.8726L76.3043 34.7248C77.3643 34.0679 79.0558 33.5269 80.6524 33.5269C83.2903 33.5232 83.7225 34.9972 83.7225 35.9449V36.173C77.9641 36.1638 74.324 38.1291 74.324 42.1315C74.324 44.5771 76.172 46.8699 79.4024 46.8699C81.3734 46.8699 83.0388 46.0842 84.0336 44.8439H84.1305C84.1305 44.8439 84.7863 47.5544 88.4134 46.5184C88.229 45.383 88.1601 44.1869 88.1601 42.7332V37.1575ZM83.8642 40.9115C83.8642 41.1985 83.84 41.4966 83.7542 41.7524C83.4226 42.8473 82.2788 43.7637 80.8554 43.7637C79.6539 43.7637 78.7112 43.0921 78.7112 41.6843C78.7112 39.5313 81.1181 38.9388 83.8642 38.9535" fill="#0071CE"/>
<path d="M0 25.624C0 25.624 3.76126 40.8238 4.35929 43.2859C5.06346 46.1639 6.32468 47.2275 9.9649 46.5191L12.3159 37.0937C12.9102 34.7586 13.3144 33.084 13.6982 30.7047H13.7634C14.0298 33.108 14.4136 34.7586 14.8998 37.1011C14.8998 37.1011 15.8592 41.3832 16.3567 43.6263C16.841 45.8695 18.2047 47.2846 21.776 46.5191L27.3723 25.624H22.8546L20.9339 34.6629C20.4253 37.2814 19.9633 39.3443 19.6037 41.7438H19.5385C19.2144 39.37 18.8027 37.3919 18.2736 34.8267L16.284 25.624H11.5708L9.44697 34.5911C8.84149 37.3293 8.27518 39.5246 7.91934 41.8487H7.85788C7.4909 39.6681 6.9935 36.8913 6.46625 34.2562C6.46625 34.2562 5.20503 27.8359 4.75981 25.624" fill="#0071CE"/>
<path d="M39.9621 37.1575C39.9621 33.6023 38.4177 30.4612 33.207 30.4612C30.5412 30.4612 28.4137 31.2138 27.2624 31.8726L28.1063 34.7248C29.1626 34.0679 30.8523 33.5269 32.4544 33.5269C35.0923 33.5232 35.5245 34.9972 35.5245 35.9449V36.173C29.7662 36.1638 26.1223 38.1291 26.1223 42.1315C26.1223 44.5771 27.9778 46.8699 31.1932 46.8699C33.1828 46.8699 34.8334 46.0842 35.8282 44.8439H35.9288C35.9288 44.8439 36.5883 47.5544 40.2117 46.5184C40.0255 45.383 39.9621 44.1869 39.9621 42.7332V37.1575ZM35.6625 40.9115C35.6625 41.1985 35.6382 41.4966 35.5563 41.7524C35.2208 42.8473 34.0771 43.7637 32.6501 43.7637C31.4559 43.7637 30.5095 43.0921 30.5095 41.6843C30.5095 39.5313 32.9164 38.9388 35.6625 38.9535" fill="#0071CE"/>
<path d="M42.3064 25.624V46.5117H46.606V42.0824V25.624H42.3064Z" fill="#0071CE"/>
<path d="M101.356 25.624V41.0354C101.356 43.1626 101.761 44.6458 102.631 45.5548C103.394 46.3516 104.644 46.8705 106.133 46.8705C107.411 46.8705 108.661 46.6276 109.252 46.416L109.199 43.0982C108.758 43.1994 108.253 43.2859 107.56 43.2859C106.092 43.2859 105.608 42.3677 105.608 40.4576V34.558H109.352V30.5667H105.608V25.624" fill="#0071CE"/>
<path d="M90.2432 30.8238V46.5185H94.6881V38.4807C94.6881 38.0482 94.716 37.6747 94.785 37.3287C95.1166 35.6339 96.4187 34.5611 98.2947 34.5611C98.8182 34.5611 99.174 34.6182 99.569 34.6789V30.5643C99.2374 30.5054 99.012 30.4741 98.604 30.4741C96.9404 30.4741 95.0551 31.5175 94.2596 33.7901H94.1497V30.8238" fill="#0071CE"/>
<path d="M49.103 30.8238V46.5185H53.4343V37.3066C53.4343 36.8742 53.4827 36.4326 53.6374 36.0332C53.9895 35.1003 54.8632 34.0201 56.266 34.0201C58.0097 34.0201 58.8331 35.4738 58.8331 37.5716V46.5185H63.1534V37.1962C63.1534 36.7896 63.2111 36.2909 63.3321 35.9302C63.6787 34.8721 64.625 34.0201 65.9329 34.0201C67.6952 34.0201 68.5484 35.4426 68.5484 37.9157V46.5185H72.8648V37.2643C72.8648 32.4026 70.361 30.4741 67.5182 30.4741C66.2682 30.4741 65.2734 30.7777 64.3791 31.3224C63.6227 31.7806 62.9596 32.4265 62.3653 33.2712H62.3001C61.6164 31.5819 60.0105 30.4741 57.9128 30.4741C55.2228 30.4741 54.0006 31.8156 53.2816 32.9491H53.2163V30.8238" fill="#0071CE"/>
<path d="M132.614 30.1193C133.464 30.1193 134.179 29.6813 134.272 29.1183L135.114 19.6966C135.114 18.7637 134.002 18 132.614 18C131.219 18 130.114 18.7637 130.114 19.6966L130.964 29.1183C131.053 29.6813 131.765 30.1193 132.614 30.1193Z" fill="#FFC220"/>
<path d="M127.448 33.0674C127.869 32.3313 127.845 31.5143 127.39 31.1499L119.529 25.7196C118.711 25.2485 117.487 25.8098 116.786 26.9985C116.088 28.1854 116.229 29.5177 117.03 29.9796L125.734 33.9654C126.291 34.1715 127.019 33.7887 127.448 33.06" fill="#FFC220"/>
<path d="M137.78 33.0597C138.225 33.7884 138.953 34.1711 139.495 33.9761L148.199 29.9793C149.008 29.5082 149.129 28.1888 148.445 27.0019C147.746 25.8131 146.515 25.2556 145.699 25.7174L137.836 31.1422C137.4 31.5121 137.368 32.3328 137.789 33.067" fill="#FFC220"/>
<path d="M132.614 41.8881C133.464 41.8881 134.179 42.326 134.272 42.8891L135.114 52.3107C135.114 53.2437 134.002 54 132.614 54C131.219 54 130.114 53.2437 130.114 52.3107L130.964 42.8891C131.053 42.326 131.765 41.8881 132.614 41.8881Z" fill="#FFC220"/>
<path d="M137.78 38.9482C138.225 38.2176 138.953 37.8275 139.495 38.0391L148.199 42.0286C149.008 42.4905 149.129 43.8209 148.445 45.0097C147.746 46.1892 146.515 46.7505 145.699 46.2886L137.836 40.8564C137.4 40.4902 137.368 39.6732 137.789 38.9482" fill="#FFC220"/>
<path d="M127.448 38.9401C127.869 39.6743 127.845 40.4895 127.39 40.8575L119.529 46.2805C118.711 46.7516 117.487 46.1885 116.786 45.0089C116.088 43.822 116.229 42.4898 117.03 42.0279L125.734 38.0384C126.291 37.8286 127.019 38.2151 127.448 38.9401Z" fill="#FFC220"/>
<path d="M150.746 45.4618H150.854C151.001 45.4618 151.061 45.5078 151.078 45.6237C151.109 45.7525 151.126 45.839 151.158 45.8758H151.437C151.413 45.8482 151.381 45.7783 151.365 45.6164C151.333 45.4765 151.26 45.3974 151.158 45.3698V45.344C151.299 45.3127 151.381 45.2189 151.381 45.1029C151.381 44.9981 151.333 44.9226 151.285 44.8748C151.191 44.8306 151.102 44.7956 150.905 44.7956C150.729 44.7956 150.601 44.8104 150.498 44.8343V45.8758H150.746V45.4618ZM150.754 44.987L150.88 44.9705C151.029 44.9705 151.109 45.0385 151.109 45.1342C151.109 45.241 151.001 45.2906 150.864 45.2906H150.754V44.987ZM150.912 44.2804C150.301 44.2804 149.817 44.7515 149.817 45.3293C149.817 45.9218 150.301 46.3929 150.912 46.3929C151.531 46.3929 152 45.9218 152 45.3293C152 44.7515 151.531 44.2804 150.912 44.2804ZM150.912 44.492C151.381 44.492 151.73 44.8674 151.73 45.3293C151.73 45.7948 151.381 46.1813 150.912 46.1739C150.443 46.1739 150.087 45.7948 150.087 45.3293C150.087 44.8674 150.443 44.492 150.905 44.492" fill="#FFC220"/>
</g>
<defs>
<clipPath id="clip0_334_92">
<rect width="152" height="36" fill="white" transform="translate(0 18)"/>
</clipPath>
</defs>
</svg>
